<svg width="393" height="264" viewBox="0 0 393 264" fill="none" xmlns="http://www.w3.org/2000/svg">
<path opacity="0.1" d="M228.335 43.3848C203.141 42.5085 179.145 34.3729 156.232 25.47C133.318 16.5671 110.623 6.70227 86.0318 1.986C70.2151 -1.04784 52.1249 -1.47624 39.3836 7.00604C27.1172 15.1845 23.1543 29.2633 21.0249 42.3411C19.421 52.1786 18.4789 62.5342 22.8701 71.7409C25.9221 78.1357 31.3332 83.5101 35.0781 89.6362C48.1075 110.947 38.897 137.227 24.7815 158.036C18.1636 167.799 10.4752 177.119 5.36389 187.502C0.25256 197.885 -2.11041 209.798 2.36249 220.399C6.79257 230.914 17.3539 238.797 28.795 244.346C52.0315 255.621 79.4022 258.846 106.111 260.672C165.216 264.719 224.633 262.966 283.894 261.213C305.827 260.563 327.852 259.905 349.427 256.513C361.409 254.628 373.777 251.641 382.477 244.42C393.517 235.256 396.254 219.741 388.854 208.248C376.443 188.974 342.139 184.188 333.454 163.504C328.682 152.116 333.583 139.436 340.524 128.874C355.41 106.223 380.359 86.3492 381.671 60.4584C382.574 42.676 370.581 24.8663 352.035 16.4503C332.598 7.63306 305.64 8.73911 291.306 23.3397C276.533 38.3726 250.583 44.1559 228.335 43.3848Z" fill="#3D6CB9"/>
</svg>
