<svg width="115" height="115" viewBox="0 0 115 115" fill="none" xmlns="http://www.w3.org/2000/svg">
<g opacity="0.5">
<path opacity="0.5" d="M57.5 115C89.2564 115 115 89.2564 115 57.5C115 25.7436 89.2564 0 57.5 0C25.7436 0 0 25.7436 0 57.5C0 89.2564 25.7436 115 57.5 115Z" fill="url(#paint0_linear)"/>
</g>
<path d="M57.6121 113.42C88.6988 113.42 113.899 88.2193 113.899 57.1326C113.899 26.0459 88.6988 0.845184 57.6121 0.845184C26.5254 0.845184 1.32471 26.0459 1.32471 57.1326C1.32471 88.2193 26.5254 113.42 57.6121 113.42Z" fill="#F5F5F5"/>
<path d="M57.6648 113.642C68.6634 113.66 79.4238 110.44 88.6044 104.383C86.5301 93.0478 78.6366 92.402 78.6366 92.402H35.108C35.108 92.402 27.6594 93.0133 25.333 103.441C34.7981 110.099 46.0926 113.662 57.6648 113.642Z" fill="#3D6CB9"/>
<path d="M57.0668 83.1147C72.0714 83.1147 84.2351 70.951 84.2351 55.9464C84.2351 40.9417 72.0714 28.778 57.0668 28.778C42.0621 28.778 29.8984 40.9417 29.8984 55.9464C29.8984 70.951 42.0621 83.1147 57.0668 83.1147Z" fill="#333333"/>
<path opacity="0.1" d="M48.2983 78.5756H65.7065V92.5025C65.7065 94.8104 64.7899 97.0238 63.1583 98.656C61.5267 100.288 59.3136 101.206 57.0057 101.207C54.6973 101.207 52.4833 100.29 50.851 98.6572C49.2187 97.0249 48.3016 94.811 48.3016 92.5025V78.5756H48.2983Z" fill="black"/>
<path d="M48.8504 77.9298H65.1613C65.3077 77.9298 65.4481 77.988 65.5516 78.0915C65.6551 78.195 65.7132 78.3354 65.7132 78.4817V91.8567C65.7134 93.0001 65.4883 94.1324 65.0508 95.1888C64.6133 96.2453 63.9719 97.2051 63.1633 98.0136C62.3546 98.8221 61.3947 99.4633 60.3381 99.9006C59.2816 100.338 58.1493 100.563 57.0058 100.562C54.6974 100.562 52.4835 99.6454 50.8511 98.013C49.2188 96.3807 48.3018 94.1668 48.3018 91.8583V78.4817C48.3018 78.3359 48.3594 78.196 48.4622 78.0926C48.565 77.9892 48.7046 77.9307 48.8504 77.9298Z" fill="#FDB797"/>
<path opacity="0.1" d="M48.3296 85.1494C53.9401 87.2455 60.1158 87.2625 65.7377 85.1972V83.0554H48.3296V85.1494Z" fill="black"/>
<path d="M57.0666 86.3143C70.8474 86.3143 82.019 75.1427 82.019 61.3619C82.019 47.5811 70.8474 36.4095 57.0666 36.4095C43.2858 36.4095 32.1143 47.5811 32.1143 61.3619C32.1143 75.1427 43.2858 86.3143 57.0666 86.3143Z" fill="#FDB797"/>
<path opacity="0.1" d="M39.2927 38.665C39.2927 38.665 49.8091 60.0109 79.4735 47.6146L72.5669 36.7852L60.3239 32.3911L39.2927 38.665Z" fill="black"/>
<path d="M39.2927 38.352C39.2927 38.352 49.8091 59.6979 79.4735 47.2983L72.5669 36.4689L60.3239 32.0748L39.2927 38.352Z" fill="#333333"/>
<path d="M39.2006 36.9055C39.9097 34.7104 41.1352 32.7177 42.7742 31.0945C47.6823 26.2424 55.729 25.2193 59.8561 19.6868C60.8446 21.2223 60.0802 23.5833 58.3733 24.2423C62.3275 24.2159 66.9093 23.8699 69.1451 20.6176C69.6976 21.9039 69.8737 23.3206 69.653 24.7031C69.4322 26.0855 68.8236 27.3769 67.8979 28.4271C71.4022 28.5919 75.1472 30.9643 75.3679 34.4654C75.5195 36.7984 74.0499 39.0061 72.1403 40.3439C70.2308 41.6817 67.9045 42.2963 65.6226 42.7988C58.9598 44.2701 34.8527 50.427 39.2006 36.9055Z" fill="#333333"/>
<path d="M32.1044 65.6917C33.3865 65.6917 34.4258 63.7428 34.4258 61.3388C34.4258 58.9348 33.3865 56.986 32.1044 56.986C30.8223 56.986 29.783 58.9348 29.783 61.3388C29.783 63.7428 30.8223 65.6917 32.1044 65.6917Z" fill="#FDB797"/>
<path d="M82.0158 65.6917C83.2978 65.6917 84.3372 63.7428 84.3372 61.3388C84.3372 58.9348 83.2978 56.986 82.0158 56.986C80.7337 56.986 79.6943 58.9348 79.6943 61.3388C79.6943 63.7428 80.7337 65.6917 82.0158 65.6917Z" fill="#FDB797"/>
<defs>
<linearGradient id="paint0_linear" x1="57.5" y1="115" x2="57.5" y2="0" gradientUnits="userSpaceOnUse">
<stop stop-color="#808080" stop-opacity="0.25"/>
<stop offset="0.54" stop-color="#808080" stop-opacity="0.12"/>
<stop offset="1" stop-color="#808080" stop-opacity="0.1"/>
</linearGradient>
</defs>
</svg>
