<svg width="229" height="185" viewBox="0 0 229 185" fill="none" xmlns="http://www.w3.org/2000/svg">
<g filter="url(#filter0_d)">
<path d="M20.8 159.48C22.2133 160.04 23.36 160.893 24.24 162.04C25.1467 163.187 25.6 164.667 25.6 166.48C25.6 169.653 24.6933 171.867 22.88 173.12C21.0667 174.373 18.9067 175 16.4 175H6.44C5.74667 175 5.16 174.773 4.68 174.32C4.22667 173.84 4 173.253 4 172.56V149.44C4 148.747 4.22667 148.173 4.68 147.72C5.16 147.24 5.74667 147 6.44 147H16.52C21.5867 147 24.12 149.373 24.12 154.12C24.12 155.32 23.8267 156.387 23.24 157.32C22.68 158.227 21.8667 158.947 20.8 159.48ZM18.92 155C18.92 153.907 18.64 153.093 18.08 152.56C17.5467 152 16.7867 151.72 15.8 151.72H9.2V157.96H15.92C16.72 157.96 17.4133 157.693 18 157.16C18.6133 156.627 18.92 155.907 18.92 155ZM16.4 170.4C17.6533 170.4 18.6267 170.067 19.32 169.4C20.04 168.733 20.4 167.76 20.4 166.48C20.4 164.907 19.9867 163.88 19.16 163.4C18.3333 162.92 17.32 162.68 16.12 162.68H9.2V170.4H16.4ZM46.0509 170.4C46.7443 170.4 47.3176 170.64 47.7709 171.12C48.2509 171.573 48.4909 172.107 48.4909 172.72C48.4909 173.387 48.2509 173.933 47.7709 174.36C47.3176 174.787 46.7443 175 46.0509 175H32.6509C31.9576 175 31.3709 174.773 30.8909 174.32C30.4376 173.84 30.2109 173.253 30.2109 172.56V149.44C30.2109 148.747 30.4376 148.173 30.8909 147.72C31.3709 147.24 31.9576 147 32.6509 147H46.0509C46.7443 147 47.3176 147.227 47.7709 147.68C48.2509 148.107 48.4909 148.667 48.4909 149.36C48.4909 150.027 48.2643 150.573 47.8109 151C47.3576 151.4 46.7709 151.6 46.0509 151.6H35.2109V158.4H44.2509C44.9443 158.4 45.5176 158.627 45.9709 159.08C46.4509 159.507 46.6909 160.067 46.6909 160.76C46.6909 161.427 46.4643 161.973 46.0109 162.4C45.5576 162.8 44.9709 163 44.2509 163H35.2109V170.4H46.0509ZM77.3816 146.96C78.0482 146.96 78.6216 147.2 79.1016 147.68C79.6082 148.133 79.8616 148.707 79.8616 149.4V172.56C79.8616 173.253 79.6349 173.84 79.1816 174.32C78.7282 174.773 78.1282 175 77.3816 175C76.6349 175 76.0216 174.773 75.5416 174.32C75.0882 173.867 74.8616 173.28 74.8616 172.56V156.44L68.2616 166.52C67.9949 166.84 67.6882 167.107 67.3416 167.32C66.9949 167.507 66.6349 167.587 66.2616 167.56C65.9149 167.587 65.5682 167.507 65.2216 167.32C64.8749 167.107 64.5682 166.84 64.3016 166.52L57.7016 156.08V172.56C57.7016 173.28 57.4882 173.867 57.0616 174.32C56.6349 174.773 56.0749 175 55.3816 175C54.7149 175 54.1682 174.773 53.7416 174.32C53.3149 173.84 53.1016 173.253 53.1016 172.56V149.4C53.1016 148.733 53.3416 148.16 53.8216 147.68C54.3282 147.2 54.9282 146.96 55.6216 146.96C56.0216 146.96 56.4216 147.067 56.8216 147.28C57.2216 147.467 57.5282 147.72 57.7416 148.04L66.4616 161.44L75.4216 148.04C75.6349 147.72 75.9149 147.467 76.2616 147.28C76.6349 147.067 77.0082 146.96 77.3816 146.96ZM87.315 165.12C86.6217 165.12 86.035 164.893 85.555 164.44C85.1017 163.987 84.875 163.413 84.875 162.72C84.875 162.053 85.1017 161.493 85.555 161.04C86.035 160.587 86.6217 160.36 87.315 160.36H94.275C94.9683 160.36 95.5417 160.6 95.995 161.08C96.475 161.533 96.715 162.107 96.715 162.8C96.715 163.467 96.475 164.027 95.995 164.48C95.5417 164.907 94.9683 165.12 94.275 165.12H87.315ZM122.174 146.92C122.841 146.92 123.414 147.147 123.894 147.6C124.401 148.053 124.654 148.6 124.654 149.24C124.654 149.587 124.574 149.947 124.414 150.32L114.534 173.44C114.294 173.947 113.961 174.333 113.534 174.6C113.108 174.867 112.654 175 112.174 175C111.721 174.973 111.294 174.84 110.894 174.6C110.521 174.333 110.228 173.96 110.014 173.48L100.134 150.28C100.001 150.013 99.9344 149.68 99.9344 149.28C99.9344 148.56 100.201 147.987 100.734 147.56C101.268 147.107 101.814 146.88 102.374 146.88C102.828 146.88 103.254 147.013 103.654 147.28C104.054 147.547 104.361 147.933 104.574 148.44L112.614 167.36L119.974 148.44C120.188 147.96 120.494 147.587 120.894 147.32C121.294 147.053 121.721 146.92 122.174 146.92ZM133.844 172.56C133.844 173.253 133.59 173.84 133.084 174.32C132.577 174.773 131.99 175 131.324 175C130.604 175 130.004 174.773 129.524 174.32C129.07 173.84 128.844 173.253 128.844 172.56V149.44C128.844 148.747 129.084 148.173 129.564 147.72C130.044 147.24 130.657 147 131.404 147C132.07 147 132.644 147.24 133.124 147.72C133.604 148.173 133.844 148.747 133.844 149.44V172.56ZM161.099 147C161.739 147 162.259 147.213 162.659 147.64C163.059 148.067 163.259 148.6 163.259 149.24V172.56C163.259 173.253 163.019 173.84 162.539 174.32C162.086 174.773 161.513 175 160.819 175C160.446 175 160.073 174.947 159.699 174.84C159.353 174.707 159.099 174.533 158.939 174.32L144.259 155.68V172.76C144.259 173.4 144.046 173.933 143.619 174.36C143.219 174.787 142.686 175 142.019 175C141.379 175 140.859 174.787 140.459 174.36C140.059 173.933 139.859 173.4 139.859 172.76V149.44C139.859 148.747 140.086 148.173 140.539 147.72C141.019 147.24 141.606 147 142.299 147C142.699 147 143.086 147.08 143.459 147.24C143.859 147.4 144.153 147.613 144.339 147.88L158.899 166.44V149.24C158.899 148.6 159.099 148.067 159.499 147.64C159.926 147.213 160.459 147 161.099 147ZM181.273 147C183.78 147 185.927 147.627 187.713 148.88C189.527 150.107 190.9 151.787 191.833 153.92C192.793 156.027 193.273 158.387 193.273 161C193.273 163.613 192.793 165.987 191.833 168.12C190.9 170.227 189.527 171.907 187.713 173.16C185.927 174.387 183.78 175 181.273 175H171.713C171.02 175 170.433 174.773 169.953 174.32C169.5 173.84 169.273 173.253 169.273 172.56V149.44C169.273 148.747 169.5 148.173 169.953 147.72C170.433 147.24 171.02 147 171.713 147H181.273ZM180.873 170.4C183.273 170.4 185.073 169.52 186.273 167.76C187.473 165.973 188.073 163.72 188.073 161C188.073 158.28 187.46 156.04 186.233 154.28C185.033 152.493 183.247 151.6 180.873 151.6H174.273V170.4H180.873ZM223.627 161C223.627 163.64 223.041 166.067 221.867 168.28C220.694 170.467 219.067 172.2 216.987 173.48C214.934 174.76 212.614 175.4 210.027 175.4C207.441 175.4 205.107 174.76 203.027 173.48C200.974 172.2 199.361 170.467 198.187 168.28C197.041 166.067 196.467 163.64 196.467 161C196.467 158.36 197.041 155.947 198.187 153.76C199.361 151.547 200.974 149.8 203.027 148.52C205.107 147.24 207.441 146.6 210.027 146.6C212.614 146.6 214.934 147.24 216.987 148.52C219.067 149.8 220.694 151.547 221.867 153.76C223.041 155.947 223.627 158.36 223.627 161ZM218.427 161C218.427 159.213 218.067 157.6 217.347 156.16C216.627 154.693 215.627 153.533 214.347 152.68C213.067 151.827 211.627 151.4 210.027 151.4C208.401 151.4 206.947 151.827 205.667 152.68C204.414 153.507 203.427 154.653 202.707 156.12C202.014 157.587 201.667 159.213 201.667 161C201.667 162.787 202.014 164.413 202.707 165.88C203.427 167.347 204.414 168.507 205.667 169.36C206.947 170.187 208.401 170.6 210.027 170.6C211.627 170.6 213.067 170.173 214.347 169.32C215.627 168.467 216.627 167.32 217.347 165.88C218.067 164.413 218.427 162.787 218.427 161Z" fill="black"/>
<g opacity="0.5">
<path opacity="0.5" d="M115.5 115C147.256 115 173 89.2564 173 57.5C173 25.7436 147.256 0 115.5 0C83.7436 0 58 25.7436 58 57.5C58 89.2564 83.7436 115 115.5 115Z" fill="url(#paint0_linear)"/>
</g>
<path d="M115.612 113.42C146.699 113.42 171.899 88.2193 171.899 57.1326C171.899 26.0459 146.699 0.845184 115.612 0.845184C84.5254 0.845184 59.3247 26.0459 59.3247 57.1326C59.3247 88.2193 84.5254 113.42 115.612 113.42Z" fill="#F5F5F5"/>
<path d="M115.665 113.642C126.663 113.66 137.424 110.44 146.604 104.383C144.53 93.0478 136.637 92.402 136.637 92.402H93.108C93.108 92.402 85.6594 93.0133 83.333 103.441C92.7981 110.099 104.093 113.662 115.665 113.642Z" fill="#3D6CB9"/>
<path d="M115.067 83.1147C130.071 83.1147 142.235 70.951 142.235 55.9464C142.235 40.9417 130.071 28.778 115.067 28.778C100.062 28.778 87.8984 40.9417 87.8984 55.9464C87.8984 70.951 100.062 83.1147 115.067 83.1147Z" fill="#333333"/>
<path opacity="0.1" d="M106.298 78.5756H123.707V92.5025C123.707 94.8104 122.79 97.0238 121.158 98.656C119.527 100.288 117.314 101.206 115.006 101.207C112.697 101.207 110.483 100.29 108.851 98.6572C107.219 97.0249 106.302 94.811 106.302 92.5025V78.5756H106.298Z" fill="black"/>
<path d="M106.85 77.9298H123.161C123.308 77.9298 123.448 77.988 123.552 78.0915C123.655 78.195 123.713 78.3354 123.713 78.4817V91.8567C123.713 93.0001 123.488 94.1324 123.051 95.1888C122.613 96.2453 121.972 97.2051 121.163 98.0136C120.355 98.8221 119.395 99.4633 118.338 99.9006C117.282 100.338 116.149 100.563 115.006 100.562C112.697 100.562 110.483 99.6454 108.851 98.013C107.219 96.3807 106.302 94.1668 106.302 91.8583V78.4817C106.302 78.3359 106.359 78.196 106.462 78.0926C106.565 77.9892 106.705 77.9307 106.85 77.9298Z" fill="#FDB797"/>
<path opacity="0.1" d="M106.33 85.1494C111.94 87.2455 118.116 87.2625 123.738 85.1972V83.0554H106.33V85.1494Z" fill="black"/>
<path d="M115.067 86.3143C128.847 86.3143 140.019 75.1427 140.019 61.3619C140.019 47.5811 128.847 36.4095 115.067 36.4095C101.286 36.4095 90.1143 47.5811 90.1143 61.3619C90.1143 75.1427 101.286 86.3143 115.067 86.3143Z" fill="#FDB797"/>
<path opacity="0.1" d="M97.2927 38.665C97.2927 38.665 107.809 60.0109 137.474 47.6146L130.567 36.7852L118.324 32.3911L97.2927 38.665Z" fill="black"/>
<path d="M97.2927 38.352C97.2927 38.352 107.809 59.6979 137.474 47.2983L130.567 36.4689L118.324 32.0748L97.2927 38.352Z" fill="#333333"/>
<path d="M97.2006 36.9055C97.9097 34.7104 99.1352 32.7177 100.774 31.0945C105.682 26.2424 113.729 25.2193 117.856 19.6868C118.845 21.2223 118.08 23.5833 116.373 24.2423C120.327 24.2159 124.909 23.8699 127.145 20.6176C127.698 21.9039 127.874 23.3206 127.653 24.7031C127.432 26.0855 126.824 27.3769 125.898 28.4271C129.402 28.5919 133.147 30.9643 133.368 34.4654C133.52 36.7984 132.05 39.0061 130.14 40.3439C128.231 41.6817 125.904 42.2963 123.623 42.7988C116.96 44.2701 92.8527 50.427 97.2006 36.9055Z" fill="#333333"/>
<path d="M90.1044 65.6917C91.3865 65.6917 92.4258 63.7428 92.4258 61.3388C92.4258 58.9348 91.3865 56.986 90.1044 56.986C88.8223 56.986 87.783 58.9348 87.783 61.3388C87.783 63.7428 88.8223 65.6917 90.1044 65.6917Z" fill="#FDB797"/>
<path d="M140.016 65.6917C141.298 65.6917 142.337 63.7428 142.337 61.3388C142.337 58.9348 141.298 56.986 140.016 56.986C138.734 56.986 137.694 58.9348 137.694 61.3388C137.694 63.7428 138.734 65.6917 140.016 65.6917Z" fill="#FDB797"/>
</g>
<defs>
<filter id="filter0_d" x="0" y="0" width="227.627" height="183.4" filterUnits="userSpaceOnUse" color-interpolation-filters="sRGB">
<feFlood flood-opacity="0" result="BackgroundImageFix"/>
<feColorMatrix in="SourceAlpha" type="matrix" values="0 0 0 0 0 0 0 0 0 0 0 0 0 0 0 0 0 0 127 0"/>
<feOffset dy="4"/>
<feGaussianBlur stdDeviation="2"/>
<feColorMatrix type="matrix" values="0 0 0 0 0 0 0 0 0 0 0 0 0 0 0 0 0 0 0.25 0"/>
<feBlend mode="normal" in2="BackgroundImageFix" result="effect1_dropShadow"/>
<feBlend mode="normal" in="SourceGraphic" in2="effect1_dropShadow" result="shape"/>
</filter>
<linearGradient id="paint0_linear" x1="115.5" y1="115" x2="115.5" y2="0" gradientUnits="userSpaceOnUse">
<stop stop-color="#808080" stop-opacity="0.25"/>
<stop offset="0.54" stop-color="#808080" stop-opacity="0.12"/>
<stop offset="1" stop-color="#808080" stop-opacity="0.1"/>
</linearGradient>
</defs>
</svg>
