<svg width="393" height="327" viewBox="0 0 393 327" fill="none" xmlns="http://www.w3.org/2000/svg">
<g clip-path="url(#clip0)">
<path opacity="0.1" d="M228.335 43.3848C203.141 42.5085 179.145 34.3729 156.232 25.47C133.318 16.5671 110.623 6.70227 86.0318 1.986C70.2151 -1.04784 52.1249 -1.47624 39.3836 7.00604C27.1172 15.1845 23.1543 29.2633 21.0249 42.3411C19.421 52.1786 18.4789 62.5342 22.8701 71.7409C25.9221 78.1357 31.3332 83.5101 35.0781 89.6362C48.1075 110.947 38.897 137.227 24.7815 158.036C18.1636 167.799 10.4752 177.119 5.36389 187.502C0.25256 197.885 -2.11041 209.798 2.36249 220.399C6.79257 230.914 17.3539 238.797 28.795 244.346C52.0315 255.621 79.4022 258.846 106.111 260.672C165.216 264.719 224.633 262.966 283.894 261.213C305.827 260.563 327.852 259.905 349.427 256.513C361.409 254.628 373.777 251.641 382.477 244.42C393.517 235.256 396.254 219.741 388.854 208.248C376.443 188.974 342.139 184.188 333.454 163.504C328.682 152.116 333.583 139.436 340.524 128.874C355.41 106.223 380.359 86.3492 381.671 60.4584C382.574 42.676 370.581 24.8663 352.035 16.4503C332.598 7.63306 305.64 8.73911 291.306 23.3397C276.533 38.3726 250.583 44.1559 228.335 43.3848Z" fill="#3D6CB9"/>
<path opacity="0.1" d="M188.216 320.173C253.569 320.173 306.547 313.003 306.547 304.159C306.547 295.314 253.569 288.144 188.216 288.144C122.863 288.144 69.8846 295.314 69.8846 304.159C69.8846 313.003 122.863 320.173 188.216 320.173Z" fill="#3D6CB9"/>
<path d="M129.636 256.482C129.636 256.482 137.811 255.173 142.716 260.953C142.716 260.953 139.119 263.788 131.38 259.862L129.636 256.482Z" fill="#3D6CB9"/>
<path d="M128.764 256.353C128.764 256.353 123.548 262.81 126.105 269.926C126.105 269.926 130.356 268.224 130.82 259.555L128.764 256.353Z" fill="#3D6CB9"/>
<path d="M124.093 245.795C124.093 245.795 127.363 239.798 140.443 248.194C140.443 248.194 138.699 252.229 132.922 251.902C127.145 251.575 125.599 248.958 124.093 245.795Z" fill="#3D6CB9"/>
<path d="M123.232 245.363C123.232 245.363 116.447 244.584 115.789 260.123C115.789 260.123 120.091 261.019 123.147 256.1C126.203 251.181 124.938 248.432 123.232 245.363Z" fill="#3D6CB9"/>
<path d="M119.277 232.971C119.277 232.971 123.092 222.389 136.939 229.913C136.939 229.913 133.778 239.622 120.694 236.569L119.277 232.971Z" fill="#3D6CB9"/>
<path d="M115.026 217.155C115.026 217.155 122.22 206.468 134.977 216.376C134.977 216.376 130.508 226.408 116.116 220.956L115.026 217.155Z" fill="#3D6CB9"/>
<path d="M113.5 202.106C113.5 202.106 121.893 192.292 134.522 202.106C134.522 202.106 126.561 210.721 113.5 204.615V202.106Z" fill="#3D6CB9"/>
<path d="M112.192 187.494C112.192 187.494 120.694 177.24 132.797 186.949C132.797 186.949 123.201 196 112.192 189.893V187.494Z" fill="#3D6CB9"/>
<path d="M112.955 174.514C112.955 174.514 121.909 161.319 133.233 170.261C133.233 170.261 123.637 181.606 112.955 177.022V174.514Z" fill="#3D6CB9"/>
<path d="M115.026 159.356C115.026 159.356 124.509 146.271 135.522 156.303C135.522 156.303 124.291 167.644 115.026 161.755V159.356Z" fill="#3D6CB9"/>
<path d="M118.191 145.807C118.191 145.807 129.414 133.512 139.213 138.408C139.213 138.408 127.511 151.466 117.701 149.067L118.191 145.807Z" fill="#3D6CB9"/>
<path d="M122.111 132.967C122.111 132.967 135.086 117.915 142.607 122.931C142.607 122.931 133.062 134.614 121.197 135.802L122.111 132.967Z" fill="#3D6CB9"/>
<path d="M127.776 118.066C127.776 118.066 139.119 105.768 147.403 108.821C147.403 108.821 137.702 121.583 126.253 121.91L127.776 118.066Z" fill="#3D6CB9"/>
<path d="M132.906 104.132C132.906 104.132 145.441 92.3548 150.891 94.4267C150.891 94.4267 141.844 107.512 132.361 106.749L132.906 104.132Z" fill="#3D6CB9"/>
<path d="M137.92 91.2643C137.92 91.2643 148.711 77.1973 154.597 78.2878C154.597 78.2878 148.057 90.8281 137.92 92.6975V91.2643Z" fill="#3D6CB9"/>
<path d="M143.359 73.9259C143.359 73.9259 152.9 63.1381 158.05 63.1653C158.05 63.1653 150.521 77.5751 142.969 77.4427L143.359 73.9259Z" fill="#3D6CB9"/>
<path d="M146.586 62.363L155.796 39.8994C155.796 39.8994 156.26 60.2055 145.41 66.5302L146.586 62.363Z" fill="#3D6CB9"/>
<path d="M150.323 37.5899C150.323 37.5899 151.849 18.8339 150.868 17.3073C150.868 17.3073 157.458 32.8854 150.26 45.8775L150.323 37.5899Z" fill="#3D6CB9"/>
<path d="M118.923 232.717C118.923 232.717 109.366 226.794 103.184 241.285C103.184 241.285 111.686 246.932 120.044 236.413L118.923 232.717Z" fill="#3D6CB9"/>
<path d="M114.723 216.551C114.723 216.551 103.005 211.204 97.3176 226.334C97.3176 226.334 106.372 232.566 115.789 220.376L114.723 216.551Z" fill="#3D6CB9"/>
<path d="M112.955 203.006C112.955 203.006 104.562 193.192 91.9338 203.006C91.9338 203.006 99.8908 211.621 112.955 205.514V203.006Z" fill="#3D6CB9"/>
<path d="M111.908 187.494C111.908 187.494 103.402 177.24 91.3032 186.949C91.3032 186.949 100.895 196 111.908 189.893V187.494Z" fill="#3D6CB9"/>
<path d="M112.955 174.888C112.955 174.888 106.991 160.108 94.0282 166.464C94.0282 166.464 101.035 179.573 112.43 177.341L112.955 174.888Z" fill="#3D6CB9"/>
<path d="M115.778 159.282C115.778 159.282 109.853 144.245 96.7026 151.217C96.7026 151.217 104.753 164.999 115.194 161.607L115.778 159.282Z" fill="#3D6CB9"/>
<path d="M119.452 145.885C119.452 145.885 117.117 129.396 106.236 127.92C106.236 127.92 108.545 145.305 118 148.853L119.452 145.885Z" fill="#3D6CB9"/>
<path d="M122.392 132.994C122.392 132.994 121.477 113.132 112.465 112.443C112.465 112.443 112.768 127.515 121.376 135.81L122.392 132.994Z" fill="#3D6CB9"/>
<path d="M128.714 117.498C128.714 117.498 126.024 100.985 117.424 98.9638C117.424 98.9638 118.491 114.959 127.861 121.552L128.714 117.498Z" fill="#3D6CB9"/>
<path d="M133.926 104.253C133.926 104.253 133.833 87.0465 128.577 84.519C128.577 84.519 125.319 100.097 132.404 106.449L133.926 104.253Z" fill="#3D6CB9"/>
<path d="M138.321 91.0618C138.321 91.0618 137.581 73.3417 132.143 70.8453C132.143 70.8453 130.278 84.8656 137.504 92.2185L138.321 91.0618Z" fill="#3D6CB9"/>
<path d="M144.121 75.3279C144.121 75.3279 144.086 60.9182 140.201 57.5377C140.201 57.5377 136.34 73.3261 142.093 78.2254L144.121 75.3279Z" fill="#3D6CB9"/>
<path d="M146.126 61.6542L142.35 37.6678C142.35 37.6678 137.212 57.3235 146.305 65.9811L146.126 61.6542Z" fill="#3D6CB9"/>
<path d="M146.866 37.8158C146.866 37.8158 137.161 21.6964 137.363 19.901C137.363 19.901 138.391 36.8032 150.599 45.2154L146.866 37.8158Z" fill="#3D6CB9"/>
<path d="M148.003 33.0568C148.003 33.0568 138.847 10.153 134.705 8.29926C134.705 8.29926 147.785 14.9511 148.766 32.4025L148.003 33.0568Z" fill="#3D6CB9"/>
<path d="M142.919 77.5673L142.292 77.3765C150.019 52.1672 151.95 36.0945 147.723 32.0675L148.174 31.5924C152.651 35.8413 150.837 51.7271 142.919 77.5673Z" fill="#444053"/>
<path d="M121.64 136.577L120.718 136.25C121.535 133.941 122.419 131.596 123.345 129.283C131.411 109.171 138.278 90.466 142.681 76.103L143.487 75.7135C139.076 90.1038 132.334 109.53 124.256 129.664C123.334 131.954 122.454 134.291 121.64 136.577Z" fill="#444053"/>
<path d="M141.14 275.351C141.015 275.211 128.488 261.105 119.76 237.013C114.642 222.913 111.791 208.091 111.312 193.098C110.713 174.354 114.645 153.425 121.379 134.416L122.111 135.272C106.995 177.941 113.002 214.507 120.967 236.53C129.609 260.4 141.988 274.358 142.113 274.494L141.14 275.351Z" fill="#444053"/>
<path d="M252.791 112.871H251.125C250.632 112.871 250.233 113.27 250.233 113.763V140.417C250.233 140.91 250.632 141.309 251.125 141.309H252.791C253.283 141.309 253.682 140.91 253.682 140.417V113.763C253.682 113.27 253.283 112.871 252.791 112.871Z" fill="#3A3768"/>
<path d="M136.659 90.5906H136.507C136.015 90.5906 135.616 90.9899 135.616 91.4824V99.0612C135.616 99.5537 136.015 99.953 136.507 99.953H136.659C137.151 99.953 137.55 99.5537 137.55 99.0612V91.4824C137.55 90.9899 137.151 90.5906 136.659 90.5906Z" fill="#3A3768"/>
<path d="M136.834 107.734H136.437C135.945 107.734 135.546 108.134 135.546 108.626V123.137C135.546 123.63 135.945 124.029 136.437 124.029H136.834C137.327 124.029 137.726 123.63 137.726 123.137V108.626C137.726 108.134 137.327 107.734 136.834 107.734Z" fill="#3A3768"/>
<path d="M136.764 129.731H136.472C135.98 129.731 135.581 130.13 135.581 130.622V145.274C135.581 145.766 135.98 146.165 136.472 146.165H136.764C137.256 146.165 137.655 145.766 137.655 145.274V130.622C137.655 130.13 137.256 129.731 136.764 129.731Z" fill="#3A3768"/>
<path d="M236.916 59.6525H151.888C143.505 59.6525 136.709 66.4509 136.709 74.8372V279.07C136.709 287.456 143.505 294.255 151.888 294.255H236.916C245.298 294.255 252.094 287.456 252.094 279.07V74.8372C252.094 66.4509 245.298 59.6525 236.916 59.6525Z" fill="#3A3768"/>
<path d="M235.818 65.7474H222.582V67.3402C222.582 68.3317 222.387 69.3135 222.008 70.2295C221.628 71.1454 221.072 71.9777 220.371 72.6786C219.67 73.3795 218.838 73.9353 217.922 74.3144C217.006 74.6935 216.025 74.8883 215.034 74.8878H172.94C171.949 74.8883 170.968 74.6935 170.052 74.3144C169.136 73.9353 168.304 73.3795 167.603 72.6786C166.902 71.9777 166.346 71.1454 165.967 70.2295C165.587 69.3135 165.392 68.3317 165.392 67.3402V65.7474H153.001C150.571 65.7474 148.24 66.7133 146.521 68.4325C144.803 70.1518 143.837 72.4837 143.837 74.9151V278.977C143.837 281.408 144.803 283.74 146.521 285.459C148.24 287.178 150.571 288.144 153.001 288.144H235.818C238.248 288.144 240.579 287.178 242.298 285.459C244.016 283.74 244.982 281.408 244.982 278.977V74.9307C244.984 73.7254 244.748 72.5316 244.289 71.4175C243.829 70.3035 243.154 69.291 242.303 68.438C241.452 67.5851 240.441 66.9084 239.328 66.4467C238.216 65.985 237.023 65.7474 235.818 65.7474V65.7474Z" fill="#3D6CB9"/>
<path d="M197.878 66.6587H184.779C183.946 66.6587 183.272 67.3335 183.272 68.1659V68.4229C183.272 69.2553 183.946 69.9301 184.779 69.9301H197.878C198.71 69.9301 199.385 69.2553 199.385 68.4229V68.1659C199.385 67.3335 198.71 66.6587 197.878 66.6587Z" fill="#E6E8EC"/>
<path d="M203.678 70.1521C204.704 70.1521 205.535 69.3204 205.535 68.2944C205.535 67.2684 204.704 66.4367 203.678 66.4367C202.653 66.4367 201.822 67.2684 201.822 68.2944C201.822 69.3204 202.653 70.1521 203.678 70.1521Z" fill="#E6E8EC"/>
<path d="M292.042 49.3631C292.042 49.3631 259.265 47.3847 263.126 70.3624C263.126 70.3624 262.348 74.4244 266.038 76.2665C266.038 76.2665 266.097 74.5646 269.402 75.1449C270.578 75.34 271.774 75.3975 272.964 75.3163C274.569 75.2107 276.096 74.586 277.316 73.5365V73.5365C277.316 73.5365 286.53 69.7276 290.112 54.6636C290.112 54.6636 292.763 51.3766 292.658 50.5315L287.126 52.8955C287.126 52.8955 289.018 56.8874 287.515 60.2055C287.515 60.2055 287.336 53.0396 286.273 53.1953C286.059 53.2265 283.4 54.5779 283.4 54.5779C283.4 54.5779 286.651 61.5296 284.198 66.5847C284.198 66.5847 285.129 58.0168 282.384 55.0803L278.491 57.3547C278.491 57.3547 282.291 64.5362 279.714 70.3975C279.714 70.3975 280.376 61.4089 277.67 57.9077L274.143 60.6612C274.143 60.6612 277.713 67.7375 275.537 72.5979C275.537 72.5979 275.253 62.1372 273.38 61.3466C273.38 61.3466 270.293 64.0728 269.822 65.1866C269.822 65.1866 272.267 70.3274 270.749 73.038C270.749 73.038 269.818 66.0668 269.055 66.0278C269.055 66.0278 265.98 70.6467 265.661 73.8169C265.661 73.8169 265.793 69.1084 268.312 65.5916C268.312 65.5916 265.337 66.1018 263.601 68.0296C263.601 68.0296 264.08 64.766 269.071 64.4778C269.071 64.4778 271.613 60.9727 272.29 60.7624C272.29 60.7624 267.331 60.3457 264.321 61.6815C264.321 61.6815 266.969 58.601 273.201 60.003L276.685 57.1561C276.685 57.1561 270.153 56.2642 267.381 57.2495C267.381 57.2495 270.569 54.5234 277.623 56.5096L281.415 54.243C281.415 54.243 275.844 53.0435 272.528 53.4641C272.528 53.4641 276.031 51.5752 282.528 53.6237L285.253 52.4048C285.253 52.4048 281.174 51.6025 279.979 51.474C278.783 51.3455 278.721 51.0183 278.721 51.0183C281.306 50.5871 283.959 50.8824 286.386 51.8712C286.386 51.8712 292.14 49.7253 292.042 49.3631Z" fill="#3D6CB9"/>
<path d="M258.42 39.1439C258.42 39.1439 243.627 38.252 245.355 48.6348C245.355 48.6348 245.009 50.4691 246.671 51.3026C246.671 51.3026 246.698 50.5237 248.193 50.7924C248.724 50.8818 249.264 50.9079 249.801 50.8703C250.527 50.8223 251.218 50.5377 251.767 50.0602V50.0602C251.767 50.0602 255.932 48.3388 257.552 41.5312C257.552 41.5312 258.747 40.0474 258.7 39.6657L256.201 40.7328C256.201 40.7328 257.053 42.536 256.384 44.0354C256.384 44.0354 256.302 40.799 255.823 40.873C255.726 40.873 254.523 41.5001 254.523 41.5001C254.523 41.5001 255.995 44.6429 254.885 46.9251C254.885 46.9251 255.305 43.054 254.064 41.7259L252.304 42.7697C252.304 42.7697 254.021 46.0138 252.857 48.6621C252.857 48.6621 253.157 44.6001 251.934 43.0189L250.342 44.2652C250.342 44.2652 251.954 47.4626 250.973 49.6591C250.973 49.6591 250.84 44.9311 249.996 44.5728C249.996 44.5728 248.602 45.8035 248.388 46.3098C248.388 46.3098 249.493 48.6465 248.808 49.8577C248.808 49.8577 248.388 46.707 248.03 46.6915C248.03 46.6915 246.64 48.7789 246.496 50.1965C246.565 48.8748 246.979 47.5941 247.695 46.4811C246.893 46.6331 246.153 47.0162 245.566 47.5833C245.566 47.5833 245.784 46.1073 248.038 45.9788C248.038 45.9788 249.205 44.3937 249.493 44.2963C249.493 44.2963 247.251 44.1094 245.893 44.713C245.893 44.713 247.088 43.3227 249.902 43.9536L251.459 42.6684C251.459 42.6684 248.505 42.279 247.255 42.7113C247.255 42.7113 248.695 41.4806 251.884 42.3763L253.597 41.3521C253.597 41.3521 251.078 40.8107 249.579 41.0054C249.579 41.0054 251.163 40.1525 254.099 41.0755L255.325 40.5264C255.325 40.5264 253.48 40.1642 252.939 40.1058C252.398 40.0474 252.37 39.8994 252.37 39.8994C253.539 39.7049 254.739 39.8398 255.835 40.2889C255.835 40.2889 258.467 39.3074 258.42 39.1439Z" fill="#3D6CB9"/>
<path opacity="0.1" d="M234.685 88.0864H154.122V259.15H234.685V88.0864Z" fill="black"/>
<path d="M232.217 306.904C232.217 306.904 230.317 302.48 229.469 300.439C228.99 299.271 228.18 299.076 227.561 299.103L227.596 298.714L227.748 296.872L227.779 296.482C229.247 296.175 230.504 295.933 230.504 295.933L229.589 248.685C229.589 248.685 229.2 248.186 228.258 245.18C227.791 243.68 225.533 241.838 223.423 240.37C223.092 240.14 222.769 239.922 222.45 239.712C223.218 239.068 224.026 238.472 224.867 237.928C226.066 237.231 226.463 233.255 226.463 233.255L226.265 233.644C226.463 233.255 226.265 223.102 226.265 223.102L225.564 212.563C225.564 212.563 225.066 200.035 221.173 196.751C217.28 193.468 212.364 192.319 212.364 192.319L209.639 191.618L204.617 190.329C204.477 190.1 204.34 189.858 204.227 189.605C204.177 189.508 204.13 189.406 204.083 189.305C205.618 188.218 206.869 186.78 207.733 185.109C208.596 183.439 209.047 181.586 209.047 179.705C209.048 179.074 208.997 178.443 208.895 177.82C208.895 177.703 208.852 177.583 208.829 177.466C209.241 177.183 209.632 176.869 209.997 176.527C210.591 176.053 211.077 175.457 211.421 174.779C211.475 174.646 211.52 174.509 211.554 174.37C211.554 174.331 211.554 174.292 211.577 174.249C211.601 174.206 211.612 174.042 211.624 173.937C211.624 173.898 211.624 173.859 211.624 173.82C211.624 173.708 211.624 173.591 211.624 173.478C211.624 173.45 211.624 173.423 211.624 173.392C211.624 173.264 211.604 173.135 211.585 173.003C211.587 172.995 211.587 172.987 211.585 172.979V172.979C211.514 172.527 211.396 172.083 211.235 171.655C210.845 170.65 210.339 169.708 210.156 168.637C209.931 167.371 210.191 165.989 209.588 164.851C209.337 164.421 208.995 164.052 208.585 163.77C208.175 163.488 207.708 163.3 207.217 163.22C206.229 163.067 205.218 163.183 204.29 163.555C203.836 163.77 203.346 163.902 202.845 163.944C202.481 163.923 202.124 163.836 201.791 163.687C200.635 163.233 199.537 162.644 198.521 161.93C197.789 161.353 197.007 160.842 196.185 160.404C195.772 160.188 195.316 160.066 194.85 160.048C194.384 160.029 193.92 160.113 193.491 160.295C192.051 161.027 191.778 163.068 190.439 163.967C189.516 164.59 188.313 164.528 187.2 164.567C186.087 164.606 184.825 164.883 184.277 165.848C183.887 166.518 183.981 167.317 184.055 168.099L184.078 168.364C184.078 168.458 184.078 168.555 184.101 168.649C184.163 169.65 184.013 170.653 183.661 171.593C183.124 173.018 182.104 174.424 182.139 175.877C182.143 176.108 182.173 176.338 182.229 176.562C182.259 176.674 182.296 176.785 182.338 176.893V176.893C182.552 177.375 182.793 177.844 183.058 178.299L183.093 178.361C183.12 178.416 183.148 178.471 183.171 178.525C183.194 178.58 183.241 178.673 183.268 178.747C183.296 178.821 183.299 178.821 183.311 178.856C183.323 178.891 183.362 179 183.381 179.074C183.445 179.294 183.473 179.523 183.463 179.752C183.417 180.047 183.392 180.345 183.389 180.644C183.39 180.793 183.443 180.938 183.538 181.053C183.633 181.169 183.764 181.248 183.911 181.278C184.071 181.274 184.228 181.226 184.362 181.138C184.711 180.939 185.043 180.711 185.355 180.457C185.355 180.581 185.355 180.706 185.378 180.846C185.649 183.634 186.904 186.233 188.917 188.18C188.917 188.3 188.917 188.425 188.89 188.569C188.862 188.713 188.87 188.849 188.862 188.994L184.502 190.364C184.502 190.364 184.526 190.442 184.572 190.575L184.113 190.758C181.851 191.673 179.333 192.81 177.923 193.842C177.301 194.294 176.732 194.664 176.222 194.972C174.371 196.105 172.951 197.826 172.189 199.859L172.131 200.007C171.742 200.899 169.834 206.967 169.834 206.967C169.834 206.967 168.436 210.347 168.234 212.536C168.234 212.536 165.937 219.791 166.537 224.566C166.537 224.566 164.738 231.428 165.439 232.519C165.439 232.519 164.723 235.471 167.868 238.442C167.638 238.583 167.389 238.734 167.128 238.902C164.692 240.436 161.176 242.925 160.577 244.845C159.646 247.832 159.245 248.35 159.245 248.35L158.303 295.524C158.303 295.524 159.561 295.766 161.028 296.07L161.06 296.459L161.211 298.297L161.246 298.687C160.627 298.66 159.818 298.874 159.339 300.026C158.486 302.063 156.614 306.484 156.614 306.484C156.614 306.484 152.421 310.378 154.963 313.992C155.075 314.157 155.206 314.309 155.353 314.444C157.178 316.103 161.071 315.04 163.839 313.957C165.246 313.357 166.458 312.378 167.343 311.13C167.454 310.984 167.595 310.862 167.756 310.773C167.916 310.684 168.094 310.629 168.277 310.612C168.912 310.509 169.51 310.248 170.017 309.852C170.322 309.629 170.569 309.336 170.735 308.997C170.902 308.658 170.984 308.283 170.975 307.905C170.973 307.886 170.973 307.866 170.975 307.847L170.729 302.305C170.729 302.305 170.43 298.434 169.476 298.683L169.231 298.741L169.164 298.352L169.036 297.6L168.97 297.211H169.499C169.499 297.211 169.632 292.833 171.232 289.391C172.832 285.948 173.883 258.137 173.883 258.137C173.883 258.137 193.686 258.46 194.347 256.603C194.737 256.603 195.161 256.603 195.566 256.575C196.232 258.433 214.921 258.523 214.921 258.523C214.921 258.523 215.984 286.364 217.58 289.811C217.917 290.549 218.197 291.312 218.417 292.093V292.093C218.919 293.899 219.221 295.755 219.316 297.627H219.846L219.776 298.017L219.647 298.765L219.581 299.154L219.328 299.096C218.382 298.85 218.082 302.721 218.082 302.721L217.829 308.298C217.809 308.675 217.884 309.05 218.046 309.39C218.207 309.73 218.451 310.024 218.756 310.246C219.271 310.65 219.88 310.918 220.527 311.025C220.71 311.039 220.888 311.093 221.049 311.181C221.21 311.27 221.351 311.392 221.461 311.539C222.346 312.786 223.559 313.765 224.965 314.366C227.954 315.534 232.252 316.676 233.848 314.405C236.41 310.783 232.217 306.904 232.217 306.904ZM181.882 237.449H181.929H181.882ZM213.162 221.528C213.162 221.528 213.664 223.417 214.559 224.41C215.454 225.403 215.011 231.572 215.011 231.572C214.658 231.595 214.309 231.651 213.967 231.74C213.278 227.639 212.644 223.086 213.162 221.528Z" fill="url(#paint0_linear)"/>
<path d="M170.102 299.267L162.274 300.046L162.056 297.425L161.904 295.622L161.69 292.985L169.086 293.375L169.674 296.759L169.799 297.495H169.803L170.102 299.267Z" fill="#8E6F7F"/>
<path d="M227.113 293.379L226.899 296.011L226.751 297.814L226.529 300.435L218.697 299.657L219.008 297.885L219.129 297.152L219.717 293.768L227.113 293.379Z" fill="#8E6F7F"/>
<path d="M218.818 255.45L195.539 256.544C194.48 256.596 193.421 256.596 192.362 256.544L170.122 255.454V237.827H218.818V255.45Z" fill="#5F5570"/>
<path opacity="0.1" d="M218.818 255.45L195.539 256.544C194.48 256.596 193.421 256.596 192.362 256.544L170.122 255.454V237.827H218.818V255.45Z" fill="black"/>
<path d="M189.006 190.337C189.006 190.337 181.252 192.943 178.332 195.085C177.725 195.529 177.164 195.895 176.674 196.195C174.87 197.307 173.49 198.99 172.753 200.977C172.734 201.032 172.714 201.078 172.695 201.121C172.306 201.997 170.457 207.937 170.457 207.937C170.457 207.937 169.094 211.247 168.899 213.389C168.705 215.531 179.994 221.275 179.994 221.275C179.994 221.275 174.544 233.154 176.977 236.172C179.41 239.19 214.933 240.65 214.154 236.172C213.375 231.693 212.013 224.294 212.694 222.249L224.762 213.486C224.762 213.486 224.275 201.218 220.48 198.005C216.684 194.792 211.916 193.624 211.916 193.624L204.36 191.677C204.36 191.677 201.697 198.298 198.777 199.174C195.858 200.05 189.462 196.004 189.006 190.337Z" fill="#EAEAF2"/>
<path opacity="0.1" d="M199.898 201.487C199.898 201.487 196.605 204.237 194.877 201.487C194.877 201.487 193.319 206.137 194.877 207.695L194.818 208.011L194.542 209.397L190.937 239.385L193.903 244.506L199.303 237.73L198.867 209.689L198.672 208.081L198.625 207.691H199.548C199.548 207.691 201.997 203.458 199.898 201.487Z" fill="black"/>
<path opacity="0.1" d="M200.677 201.487C200.677 201.487 197.384 204.237 195.655 201.487C195.655 201.487 194.098 206.137 195.655 207.695L195.597 208.011L195.32 209.397L191.716 239.385L194.682 244.506L200.081 237.73L199.645 209.689L199.451 208.081L199.404 207.691H200.327C200.327 207.691 202.775 203.458 200.677 201.487Z" fill="black"/>
<path d="M199.692 237.344L194.293 244.109L191.319 239.015L194.927 209.011L195.204 207.625L195.266 207.306L195.753 206.044L199.015 207.306L199.062 207.695L199.256 209.304L199.692 237.344Z" fill="#BC8487"/>
<path opacity="0.1" d="M169.674 296.755C167.994 296.744 166.319 296.574 164.672 296.245C163.858 296.042 162.838 295.817 161.908 295.618L161.69 292.981L169.086 293.371L169.674 296.755Z" fill="black"/>
<path d="M194.351 256.579C193.705 258.398 174.404 258.079 174.404 258.079C174.404 258.079 173.369 285.34 171.811 288.717C170.254 292.093 170.122 296.373 170.122 296.373C170.122 296.373 166.751 296.373 164.672 295.855C162.593 295.338 159.222 294.687 159.222 294.687L160.133 248.44C160.133 248.44 160.522 247.953 161.429 245.028C162.013 243.147 165.439 240.709 167.81 239.186C169.133 238.353 170.122 237.808 170.122 237.808L181.637 238.275L188.745 238.563C188.745 238.563 195.001 254.76 194.351 256.579Z" fill="#5F5570"/>
<path opacity="0.1" d="M170.106 299.263L162.274 300.042L162.052 297.421C162.345 297.429 162.635 297.493 162.905 297.608C164.333 298.636 168.417 297.818 169.799 297.491L170.106 299.263Z" fill="black"/>
<path d="M171.586 306.838C171.595 307.208 171.514 307.574 171.351 307.906C171.188 308.238 170.946 308.525 170.647 308.742C170.155 309.129 169.572 309.385 168.954 309.486C168.776 309.502 168.603 309.555 168.446 309.642C168.29 309.729 168.154 309.849 168.047 309.993C167.182 311.214 165.996 312.172 164.621 312.762C161.924 313.821 158.128 314.861 156.349 313.237C156.202 313.106 156.071 312.958 155.96 312.797C153.48 309.245 157.567 305.444 157.567 305.444C157.567 305.444 159.413 301.113 160.242 299.119C160.331 298.86 160.474 298.624 160.662 298.424C160.849 298.224 161.076 298.066 161.329 297.961C161.581 297.855 161.853 297.803 162.126 297.81C162.4 297.816 162.669 297.88 162.916 297.997C164.473 299.119 169.195 298.044 170.118 297.807C171.041 297.569 171.336 301.355 171.336 301.355L171.586 306.78C171.584 306.799 171.584 306.819 171.586 306.838V306.838Z" fill="#BC8487"/>
<path opacity="0.1" d="M227.117 293.375L226.899 296.007C225.969 296.206 224.953 296.432 224.131 296.634C222.485 296.964 220.812 297.136 219.133 297.148L219.721 293.764L227.117 293.375Z" fill="black"/>
<path d="M229.589 295.077C229.589 295.077 226.218 295.727 224.139 296.245C222.061 296.763 218.689 296.763 218.689 296.763C218.689 296.763 218.561 292.479 217.004 289.106C215.447 285.734 214.407 258.468 214.407 258.468C214.407 258.468 196.196 258.363 195.546 256.544C194.896 254.725 203.484 239.019 203.484 239.019L208.72 238.746L218.689 238.216C218.689 238.216 220.636 239.276 222.676 240.705C224.716 242.134 226.931 243.949 227.386 245.417C228.293 248.342 228.682 248.829 228.682 248.829L229.589 295.077Z" fill="#5F5570"/>
<path opacity="0.1" d="M226.751 297.811L226.533 300.432L218.697 299.653L219.008 297.881C220.39 298.212 224.458 299.026 225.899 297.997C226.169 297.882 226.458 297.819 226.751 297.811Z" fill="black"/>
<path d="M225.899 298.387C226.146 298.269 226.416 298.204 226.69 298.198C226.964 298.191 227.236 298.242 227.489 298.348C227.742 298.454 227.97 298.612 228.157 298.812C228.345 299.012 228.488 299.249 228.577 299.509C229.403 301.503 231.252 305.837 231.252 305.837C231.252 305.837 235.339 309.634 232.859 313.186C231.302 315.414 227.113 314.296 224.202 313.151C222.825 312.564 221.639 311.605 220.776 310.382C220.669 310.238 220.532 310.118 220.375 310.031C220.218 309.944 220.044 309.891 219.865 309.876C219.233 309.766 218.638 309.498 218.137 309.097C217.842 308.879 217.606 308.591 217.449 308.259C217.292 307.928 217.219 307.563 217.237 307.196L217.483 301.744C217.483 301.744 217.775 297.955 218.697 298.192C219.62 298.43 224.342 299.509 225.899 298.387Z" fill="#BC8487"/>
<path d="M205.777 193.624L197.917 201.958L197.699 202.192L197.415 202.025C195.772 201.051 187.554 196.089 188.259 194.598C188.648 193.749 188.878 191.981 188.998 190.458C188.998 190.275 189.022 190.096 189.037 189.92C189.115 188.717 189.135 187.782 189.135 187.782C189.135 187.782 203.928 185.251 203.344 187.782C203.106 188.807 203.46 189.959 203.963 190.968C204.111 191.26 204.274 191.537 204.434 191.798C204.827 192.445 205.276 193.056 205.777 193.624V193.624Z" fill="#FFC4D0"/>
<path opacity="0.1" d="M203.963 190.968C201.756 192.595 199.042 193.383 196.307 193.191C193.573 192.999 190.996 191.84 189.037 189.92C189.115 188.717 189.135 187.782 189.135 187.782C189.135 187.782 203.928 185.251 203.344 187.782C203.118 188.814 203.46 189.959 203.963 190.968Z" fill="black"/>
<path d="M208.661 181.275C208.704 184.272 207.58 187.169 205.528 189.354C203.475 191.538 200.655 192.839 197.661 192.981C194.668 193.124 191.737 192.097 189.486 190.118C187.236 188.138 185.842 185.361 185.6 182.373C185.569 182.009 185.553 181.643 185.553 181.275C185.525 179.74 185.803 178.214 186.371 176.788C186.938 175.362 187.784 174.063 188.86 172.967C189.935 171.872 191.217 171.001 192.632 170.407C194.047 169.813 195.567 169.507 197.101 169.507C198.636 169.507 200.155 169.813 201.57 170.407C202.985 171.001 204.268 171.872 205.343 172.967C206.418 174.063 207.264 175.362 207.832 176.788C208.4 178.214 208.678 179.74 208.65 181.275H208.661Z" fill="#FFC4D0"/>
<path opacity="0.1" d="M208.517 179.429C208.217 179.674 207.868 179.852 207.494 179.954C207.119 180.055 206.728 180.077 206.345 180.017C204.562 179.627 203.951 176.901 202.129 176.714C200.307 176.527 199.097 179.051 197.251 179C196.473 178.981 195.772 178.471 195.056 178.116C193.802 177.497 191.739 177.119 190.384 177.586C188.348 178.284 187.659 180.169 186.359 181.668C186.137 181.923 185.893 182.159 185.631 182.373C185.6 182.009 185.584 181.643 185.584 181.275C185.558 178.352 186.639 175.528 188.611 173.372C190.582 171.215 193.297 169.886 196.209 169.652C199.121 169.418 202.013 170.296 204.304 172.11C206.594 173.925 208.112 176.539 208.552 179.429H208.517Z" fill="black"/>
<path d="M195.056 177.731C195.772 178.081 196.457 178.595 197.251 178.615C199.093 178.661 200.296 176.126 202.125 176.325C203.955 176.523 204.558 179.226 206.349 179.627C207.552 179.9 208.685 179 209.584 178.163C210.165 177.7 210.639 177.117 210.974 176.453C211.363 175.487 211.161 174.374 210.799 173.392C210.436 172.411 209.927 171.468 209.747 170.436C209.529 169.198 209.783 167.842 209.195 166.729C208.951 166.308 208.618 165.946 208.218 165.67C207.818 165.394 207.362 165.21 206.882 165.132C205.919 164.982 204.934 165.094 204.029 165.455C203.588 165.669 203.112 165.801 202.624 165.845C202.267 165.823 201.918 165.737 201.592 165.591C200.466 165.147 199.397 164.571 198.408 163.874C197.698 163.307 196.938 162.807 196.138 162.378C195.736 162.167 195.292 162.048 194.838 162.03C194.384 162.012 193.932 162.095 193.514 162.273C192.113 162.99 191.844 164.999 190.54 165.868C189.641 166.475 188.469 166.413 187.387 166.456C186.305 166.499 185.051 166.76 184.537 167.706C184.078 168.52 184.308 169.521 184.366 170.452C184.424 171.432 184.277 172.414 183.934 173.334C183.331 174.946 182.104 176.535 182.54 178.202C182.824 179.296 183.805 180.204 183.747 181.317C183.701 181.605 183.676 181.895 183.673 182.186C183.674 182.332 183.726 182.474 183.818 182.587C183.911 182.701 184.04 182.779 184.183 182.809C184.339 182.807 184.491 182.758 184.619 182.669C185.266 182.307 185.847 181.836 186.336 181.279C187.652 179.775 188.333 177.894 190.369 177.197C191.743 176.741 193.802 177.107 195.056 177.731Z" fill="#8E6F7F"/>
<path d="M208.451 245.713L206.349 246.286L201.495 247.622C200.371 248.459 199.107 249.088 197.761 249.479C194.791 250.231 192.872 248.595 191.276 246.064C190.633 245.051 190.957 244.241 191.797 243.606C193.822 242.076 198.828 241.577 200.362 241.78C201.369 241.862 202.382 241.705 203.316 241.32C203.98 241.079 204.62 240.776 205.228 240.417L208.451 245.713Z" fill="#FFC4D0"/>
<path opacity="0.1" d="M208.451 245.713L206.349 246.286C205.746 244.467 204.753 242.185 203.332 241.309C203.996 241.067 204.636 240.765 205.243 240.405L208.451 245.713Z" fill="black"/>
<path opacity="0.1" d="M222.668 240.705C221.796 241.41 221.056 242.053 221.056 242.053C221.056 242.053 210.935 245.227 208.988 249.219C208.988 249.219 207.431 241.429 204.122 241.332C204.122 241.332 207.684 239.934 208.712 238.738L218.689 238.216C218.689 238.216 220.636 239.276 222.668 240.705Z" fill="black"/>
<path d="M222.516 210.176L224.754 213.486L225.436 223.807C225.436 223.807 225.63 233.738 225.436 234.127L225.63 233.738C225.63 233.738 225.241 237.632 224.073 238.314C222.905 238.995 220.278 241.274 220.278 241.274C220.278 241.274 210.156 244.448 208.21 248.44C208.21 248.44 206.653 240.651 203.344 240.553C203.344 240.553 208.307 238.606 208.21 237.34C208.21 237.34 212.005 233.933 212.297 233.056C212.589 232.18 214.485 232.083 214.485 232.083C214.485 232.083 214.925 226.046 214.049 225.072C213.173 224.099 212.687 222.249 212.687 222.249L222.516 210.176Z" fill="#EAEAF2"/>
<path opacity="0.1" d="M197.761 249.468C194.791 250.219 192.872 248.584 191.276 246.052C190.633 245.04 190.957 244.23 191.797 243.595L192.101 243.716C192.101 243.716 197.454 246.037 197.761 249.468Z" fill="black"/>
<path d="M196.531 252.579C193.028 257.448 186.507 250.679 186.02 249.316C185.845 248.821 185.18 248.381 184.413 248.027C183.44 247.602 182.43 247.266 181.396 247.026L187.188 242.306L188.298 242.75L191.712 244.117C191.712 244.117 200.035 247.711 196.531 252.579Z" fill="#FFC4D0"/>
<path opacity="0.1" d="M188.298 242.75C185.106 244.269 184.424 246.453 184.405 248.027C183.432 247.602 182.422 247.266 181.388 247.026L187.181 242.306L188.298 242.75Z" fill="black"/>
<path opacity="0.1" d="M183.198 251.166C183.198 251.166 173.855 243.766 169.378 240.553C168.818 240.154 168.297 239.703 167.821 239.206C169.145 238.372 170.134 237.827 170.134 237.827L181.649 238.294C181.956 238.828 182.139 239.19 182.139 239.19L188.368 243.279C180.862 245.713 183.198 251.166 183.198 251.166Z" fill="black"/>
<path d="M170.741 212.318L168.892 213.389C168.892 213.389 166.653 220.496 167.237 225.17C167.237 225.17 165.486 231.888 166.167 232.959C166.167 232.959 165.291 236.561 169.768 239.774C174.245 242.987 183.587 250.387 183.587 250.387C183.587 250.387 181.252 244.935 188.745 242.5L182.517 238.411C182.517 238.411 180.426 234.26 178.429 233.348C178.429 233.348 176.872 231.791 177.845 230.72C178.819 229.649 179.597 228.48 179.597 227.409C179.597 226.338 179.987 221.275 179.987 221.275L181.154 215.823L170.741 212.318Z" fill="#EAEAF2"/>
<path opacity="0.1" d="M199.061 207.691H195.266C195.243 207.67 195.222 207.646 195.204 207.621L195.266 207.302L195.753 206.04L199.015 207.302L199.061 207.691Z" fill="black"/>
<path d="M200.288 201.098C200.288 201.098 196.994 203.847 195.266 201.098C195.266 201.098 193.709 205.748 195.266 207.306H199.937C199.937 207.306 202.386 203.068 200.288 201.098Z" fill="#BC8487"/>
<path opacity="0.1" d="M204.741 192.066L209.646 193.332C209.646 193.332 204.998 205.405 203.974 205.405L198.088 202.582L204.741 192.066Z" fill="black"/>
<path opacity="0.1" d="M205.777 193.624L197.917 201.958L197.699 202.192L197.415 202.025L204.286 191.541L204.453 191.817C204.841 192.457 205.284 193.061 205.777 193.624V193.624Z" fill="black"/>
<path d="M204.352 191.677L209.257 192.943C209.257 192.943 204.609 205.016 203.585 205.016L197.699 202.192L204.352 191.677Z" fill="#EAEAF2"/>
<path opacity="0.1" d="M188.617 190.727L184.366 192.066C184.366 192.066 188.551 204.724 189.719 205.405L197.31 202.582L188.617 190.727Z" fill="black"/>
<path opacity="0.1" d="M197.917 201.958L197.699 202.192C197.699 202.192 187.48 196.253 188.259 194.598C188.648 193.749 188.878 191.981 188.999 190.458V190.22L197.917 201.958Z" fill="black"/>
<path d="M189.006 190.337L184.755 191.677C184.755 191.677 188.94 204.334 190.108 205.016L197.699 202.192L189.006 190.337Z" fill="#EAEAF2"/>
<path opacity="0.1" d="M178.881 211.013C178.881 211.013 181.442 211.469 181.396 214.129C181.349 216.789 182.451 210.69 182.451 210.69L178.881 211.013Z" fill="black"/>
<path opacity="0.1" d="M179.465 219.192C179.465 219.192 178.752 223.215 179.465 226.852C180.177 230.49 180.115 231.72 180.668 231.915C181.22 232.11 179.465 219.192 179.465 219.192Z" fill="black"/>
<path opacity="0.1" d="M212.165 218.802C211.961 218.828 211.764 218.899 211.59 219.009C211.416 219.119 211.268 219.265 211.157 219.439C211.045 219.612 210.973 219.808 210.946 220.012C210.918 220.216 210.936 220.424 210.997 220.621C211.324 222.249 212.165 218.802 212.165 218.802Z" fill="black"/>
<path opacity="0.1" d="M167.658 232.433C167.658 232.433 176 231.72 177.39 233.212C178.78 234.704 167.658 232.433 167.658 232.433Z" fill="black"/>
<path opacity="0.1" d="M216.058 232.998C216.058 232.998 222.158 232.246 223.587 233.286Z" fill="black"/>
<path opacity="0.1" d="M218.526 233.991C218.526 233.991 222.158 234.119 223.003 234.575Z" fill="black"/>
<path opacity="0.1" d="M219.238 235.296C219.238 235.296 222.547 235.167 223.003 235.685Z" fill="black"/>
<path opacity="0.1" d="M172.574 253.6C172.574 253.6 175.408 255.076 175.12 256.583C174.832 258.09 172.574 253.6 172.574 253.6Z" fill="black"/>
<path opacity="0.1" d="M170.122 254.316C170.122 254.316 174.447 259.928 173.859 261.778C173.271 263.628 170.122 254.316 170.122 254.316Z" fill="black"/>
<path opacity="0.1" d="M216.482 255.247C216.482 255.247 214.341 257.011 214.399 258.468Z" fill="black"/>
<path opacity="0.1" d="M167.043 290.014C167.043 290.014 167.043 291.669 170.106 294.103Z" fill="black"/>
<path opacity="0.1" d="M221.118 286.119C221.118 286.119 220.791 289.562 217.81 291.346Z" fill="black"/>
<g opacity="0.1">
<path opacity="0.1" d="M184.366 169.268C184.366 168.999 184.319 168.723 184.296 168.45C184.246 169.045 184.264 169.643 184.35 170.234C184.377 169.912 184.382 169.59 184.366 169.268Z" fill="black"/>
<path opacity="0.1" d="M183.747 180.149C183.805 179.02 182.824 178.112 182.54 177.033C182.526 176.981 182.515 176.928 182.509 176.874C182.42 177.313 182.431 177.767 182.54 178.202C182.77 179.094 183.463 179.857 183.681 180.722C183.7 180.519 183.739 180.336 183.747 180.149Z" fill="black"/>
<path opacity="0.1" d="M210.974 175.285C210.638 175.948 210.164 176.531 209.584 176.995C208.677 177.832 207.552 178.731 206.349 178.459C204.562 178.069 203.947 175.343 202.125 175.156C200.303 174.969 199.093 177.493 197.251 177.442C196.473 177.423 195.772 176.913 195.056 176.558C193.802 175.939 191.743 175.561 190.384 176.029C188.348 176.726 187.659 178.611 186.351 180.11C185.863 180.668 185.284 181.14 184.638 181.504C184.508 181.591 184.355 181.638 184.198 181.641C184.101 181.628 184.009 181.588 183.932 181.526C183.855 181.464 183.796 181.383 183.762 181.29V181.317C183.717 181.606 183.692 181.898 183.688 182.19C183.691 182.336 183.742 182.476 183.835 182.589C183.928 182.701 184.056 182.779 184.198 182.809C184.355 182.806 184.508 182.759 184.638 182.673C185.284 182.308 185.863 181.837 186.351 181.279C187.667 179.779 188.348 177.894 190.384 177.197C191.758 176.73 193.818 177.107 195.056 177.727C195.772 178.081 196.457 178.591 197.251 178.611C199.093 178.657 200.295 176.122 202.125 176.325C203.955 176.527 204.562 179.222 206.349 179.627C207.552 179.9 208.685 179 209.584 178.163C210.164 177.699 210.638 177.116 210.974 176.453C211.19 175.89 211.248 175.279 211.141 174.685C211.108 174.891 211.052 175.092 210.974 175.285V175.285Z" fill="black"/>
</g>
<path opacity="0.1" d="M157.571 305.448C157.571 305.448 160.752 304.466 162.071 306.328Z" fill="black"/>
<path opacity="0.1" d="M231.252 305.837C231.252 305.837 225.985 305.53 226.191 306.955Z" fill="black"/>
<path opacity="0.1" d="M336.41 302.951C342.199 302.951 346.893 302.158 346.893 301.179C346.893 300.201 342.199 299.407 336.41 299.407C330.62 299.407 325.926 300.201 325.926 301.179C325.926 302.158 330.62 302.951 336.41 302.951Z" fill="#3D6CB9"/>
<path opacity="0.1" d="M35.46 317.493C41.2499 317.493 45.9435 316.7 45.9435 315.721C45.9435 314.743 41.2499 313.949 35.46 313.949C29.6702 313.949 24.9766 314.743 24.9766 315.721C24.9766 316.7 29.6702 317.493 35.46 317.493Z" fill="#3D6CB9"/>
<path opacity="0.1" d="M76.012 327C81.8019 327 86.4955 326.207 86.4955 325.228C86.4955 324.249 81.8019 323.456 76.012 323.456C70.2222 323.456 65.5286 324.249 65.5286 325.228C65.5286 326.207 70.2222 327 76.012 327Z" fill="#3D6CB9"/>
<path d="M313.461 322.817C322.106 322.817 329.114 321.632 329.114 320.169C329.114 318.706 322.106 317.521 313.461 317.521C304.816 317.521 297.808 318.706 297.808 320.169C297.808 321.632 304.816 322.817 313.461 322.817Z" fill="#3D6CB9"/>
<path d="M319.935 315.838C320.648 315.255 321.168 314.468 321.426 313.583C321.621 312.691 321.239 311.636 320.383 311.289C319.425 310.923 318.401 311.589 317.627 312.259C316.852 312.929 315.96 313.696 314.944 313.552C315.467 313.079 315.859 312.478 316.08 311.809C316.302 311.139 316.347 310.424 316.209 309.732C316.164 309.445 316.041 309.176 315.855 308.953C315.326 308.384 314.36 308.626 313.726 309.077C311.702 310.499 311.137 313.252 311.125 315.725C310.919 314.833 311.094 313.903 311.086 312.999C311.079 312.096 310.833 311.052 310.059 310.573C309.581 310.316 309.044 310.19 308.502 310.207C307.591 310.172 306.579 310.265 305.956 310.931C305.177 311.757 305.387 313.143 306.057 314.047C306.726 314.95 307.75 315.531 308.692 316.158C309.446 316.607 310.089 317.221 310.573 317.953C310.631 318.055 310.678 318.164 310.713 318.276H316.4C317.683 317.626 318.872 316.806 319.935 315.838V315.838Z" fill="#3D6CB9"/>
<path d="M76.5531 281.679C76.5531 281.679 78.6942 284.48 75.5682 288.69C72.4423 292.9 69.8652 296.479 70.8968 299.115C70.8968 299.115 75.615 291.268 79.4611 291.159C83.3073 291.05 80.7769 286.4 76.5531 281.679Z" fill="#3D6CB9"/>
<path opacity="0.1" d="M76.5532 281.679C76.7399 281.95 76.8867 282.247 76.9892 282.56C80.7341 286.96 82.7312 291.069 79.1303 291.17C75.7785 291.268 71.7572 297.265 70.7917 298.78C70.8229 298.897 70.8618 299.01 70.9046 299.127C70.9046 299.127 75.6228 291.279 79.4689 291.17C83.3151 291.061 80.777 286.4 76.5532 281.679Z" fill="black"/>
<path d="M80.5277 285.247C80.5277 286.232 80.4187 287.03 80.2825 287.03C80.1462 287.03 80.0372 286.232 80.0372 285.247C80.0372 284.261 80.1735 284.725 80.3097 284.725C80.446 284.725 80.5277 284.261 80.5277 285.247Z" fill="#FFD037"/>
<path d="M81.8941 286.423C81.0299 286.894 80.2747 287.178 80.2124 287.058C80.1501 286.937 80.7925 286.458 81.6567 285.987C82.5209 285.516 82.1822 285.858 82.2445 285.987C82.3068 286.115 82.7584 285.952 81.8941 286.423Z" fill="#FFD037"/>
<path d="M65.26 281.679C65.26 281.679 63.1189 284.48 66.2449 288.69C69.3708 292.9 71.9479 296.479 70.9163 299.115C70.9163 299.115 66.202 291.268 62.352 291.159C58.502 291.05 61.0284 286.4 65.26 281.679Z" fill="#3D6CB9"/>
<path opacity="0.1" d="M65.26 281.679C65.0727 281.951 64.9246 282.247 64.8201 282.56C61.0752 286.96 59.082 291.069 62.679 291.17C66.0347 291.268 70.056 297.265 71.0214 298.78C70.9895 298.898 70.9505 299.014 70.9046 299.127C70.9046 299.127 66.1904 291.279 62.3404 291.17C58.4903 291.061 61.0285 286.4 65.26 281.679Z" fill="black"/>
<path d="M61.2815 285.247C61.2815 286.232 61.3944 287.03 61.5306 287.03C61.6669 287.03 61.7759 286.232 61.7759 285.247C61.7759 284.261 61.6396 284.725 61.5034 284.725C61.3671 284.725 61.2815 284.261 61.2815 285.247Z" fill="#FFD037"/>
<path d="M59.9189 286.423C60.7831 286.894 61.5344 287.178 61.6006 287.058C61.6668 286.937 61.0167 286.458 60.1525 285.987C59.2883 285.516 59.6308 285.858 59.5647 285.987C59.4985 286.115 59.0547 285.952 59.9189 286.423Z" fill="#FFD037"/>
<path d="M61.9626 298.761C61.9626 298.761 67.9421 298.574 69.7484 297.293C71.5547 296.011 78.9472 294.473 79.391 296.533C79.8348 298.593 88.3796 306.772 81.6294 306.826C74.8792 306.881 65.9412 305.775 64.1427 304.68C62.3441 303.586 61.9626 298.761 61.9626 298.761Z" fill="#A8A8A8"/>
<path opacity="0.2" d="M81.7462 306.11C74.996 306.164 66.0579 305.058 64.2594 303.964C62.893 303.127 62.3442 300.132 62.1612 298.753H61.9626C61.9626 298.753 62.3519 303.574 64.1388 304.673C65.9256 305.771 74.8753 306.873 81.6255 306.819C83.5719 306.819 84.2454 306.11 84.2104 305.082C83.9379 305.713 83.1943 306.098 81.7462 306.11Z" fill="black"/>
</g>
<defs>
<linearGradient id="paint0_linear" x1="154.122" y1="237.87" x2="234.685" y2="237.87" gradientUnits="userSpaceOnUse">
<stop stop-color="#808080" stop-opacity="0.25"/>
<stop offset="0.54" stop-color="#808080" stop-opacity="0.12"/>
<stop offset="1" stop-color="#808080" stop-opacity="0.1"/>
</linearGradient>
<clipPath id="clip0">
<rect width="393" height="327" fill="white"/>
</clipPath>
</defs>
</svg>
