<svg width="117" height="25" viewBox="0 0 117 25" fill="none" xmlns="http://www.w3.org/2000/svg">
<path d="M12.5 0L15.3064 8.63729H24.3882L17.0409 13.9754L19.8473 22.6127L12.5 17.2746L5.15268 22.6127L7.95911 13.9754L0.611794 8.63729H9.69357L12.5 0Z" fill="#FFC90C"/>
<path d="M35.5 0L38.3064 8.63729H47.3882L40.0409 13.9754L42.8473 22.6127L35.5 17.2746L28.1527 22.6127L30.9591 13.9754L23.6118 8.63729H32.6936L35.5 0Z" fill="#FFC90C"/>
<path d="M58.5 0L61.3064 8.63729H70.3882L63.0409 13.9754L65.8473 22.6127L58.5 17.2746L51.1527 22.6127L53.9591 13.9754L46.6118 8.63729H55.6936L58.5 0Z" fill="#FFC90C"/>
<path d="M81.5 0L84.3064 8.63729H93.3882L86.0409 13.9754L88.8473 22.6127L81.5 17.2746L74.1527 22.6127L76.9591 13.9754L69.6118 8.63729H78.6936L81.5 0Z" fill="#FFC90C"/>
<path d="M104.5 0L107.306 8.63729H116.388L109.041 13.9754L111.847 22.6127L104.5 17.2746L97.1527 22.6127L99.9591 13.9754L92.6118 8.63729H101.694L104.5 0Z" fill="#FFC90C"/>
</svg>
