<svg width="507" height="569" viewBox="0 0 507 569" fill="none" xmlns="http://www.w3.org/2000/svg">
<path d="M196 263.5C-64.5 336.5 159.129 191.793 0.5 0V570.5H483.5C500.099 527.494 456.5 190.5 196 263.5Z" fill="#3D6CB9"/>
<g clip-path="url(#clip0)">
<path opacity="0.1" d="M342.335 122.385C317.141 121.509 293.145 113.373 270.232 104.47C247.318 95.5671 224.623 85.7023 200.032 80.986C184.215 77.9522 166.125 77.5238 153.384 86.006C141.117 94.1845 137.154 108.263 135.025 121.341C133.421 131.179 132.479 141.534 136.87 150.741C139.922 157.136 145.333 162.51 149.078 168.636C162.108 189.947 152.897 216.227 138.781 237.036C132.164 246.799 124.475 256.119 119.364 266.502C114.253 276.885 111.89 288.798 116.362 299.399C120.793 309.914 131.354 317.797 142.795 323.346C166.032 334.621 193.402 337.846 220.111 339.672C279.216 343.719 338.633 341.966 397.894 340.213C419.827 339.563 441.852 338.905 463.427 335.513C475.409 333.628 487.777 330.641 496.477 323.42C507.517 314.256 510.254 298.741 502.854 287.248C490.443 267.974 456.139 263.188 447.454 242.504C442.682 231.116 447.583 218.436 454.524 207.874C469.41 185.223 494.359 165.349 495.671 139.458C496.574 121.676 484.581 103.866 466.035 95.4503C446.598 86.6331 419.64 87.7391 405.306 102.34C390.533 117.373 364.583 123.156 342.335 122.385Z" fill="#3D6CB9"/>
<path opacity="0.1" d="M302.216 399.173C367.569 399.173 420.547 392.003 420.547 383.159C420.547 374.314 367.569 367.144 302.216 367.144C236.863 367.144 183.885 374.314 183.885 383.159C183.885 392.003 236.863 399.173 302.216 399.173Z" fill="#3D6CB9"/>
<path d="M243.636 335.482C243.636 335.482 251.811 334.173 256.716 339.953C256.716 339.953 253.119 342.788 245.38 338.862L243.636 335.482Z" fill="#3D6CB9"/>
<path d="M242.764 335.353C242.764 335.353 237.548 341.81 240.105 348.926C240.105 348.926 244.356 347.224 244.82 338.555L242.764 335.353Z" fill="#3D6CB9"/>
<path d="M238.093 324.795C238.093 324.795 241.363 318.798 254.443 327.194C254.443 327.194 252.699 331.229 246.922 330.902C241.145 330.575 239.599 327.958 238.093 324.795Z" fill="#3D6CB9"/>
<path d="M237.232 324.363C237.232 324.363 230.447 323.584 229.789 339.123C229.789 339.123 234.091 340.019 237.147 335.1C240.203 330.181 238.938 327.432 237.232 324.363Z" fill="#3D6CB9"/>
<path d="M233.277 311.971C233.277 311.971 237.092 301.389 250.939 308.913C250.939 308.913 247.778 318.622 234.694 315.569L233.277 311.971Z" fill="#3D6CB9"/>
<path d="M229.026 296.155C229.026 296.155 236.22 285.468 248.977 295.376C248.977 295.376 244.508 305.408 230.116 299.956L229.026 296.155Z" fill="#3D6CB9"/>
<path d="M227.5 281.106C227.5 281.106 235.893 271.292 248.522 281.106C248.522 281.106 240.561 289.721 227.5 283.615V281.106Z" fill="#3D6CB9"/>
<path d="M226.192 266.494C226.192 266.494 234.694 256.24 246.797 265.949C246.797 265.949 237.201 275 226.192 268.893V266.494Z" fill="#3D6CB9"/>
<path d="M226.955 253.514C226.955 253.514 235.909 240.319 247.233 249.261C247.233 249.261 237.637 260.606 226.955 256.022V253.514Z" fill="#3D6CB9"/>
<path d="M229.026 238.356C229.026 238.356 238.509 225.271 249.522 235.303C249.522 235.303 238.291 246.644 229.026 240.755V238.356Z" fill="#3D6CB9"/>
<path d="M232.191 224.807C232.191 224.807 243.414 212.512 253.213 217.408C253.213 217.408 241.511 230.466 231.701 228.067L232.191 224.807Z" fill="#3D6CB9"/>
<path d="M236.111 211.967C236.111 211.967 249.086 196.915 256.607 201.931C256.607 201.931 247.062 213.614 235.197 214.802L236.111 211.967Z" fill="#3D6CB9"/>
<path d="M241.776 197.066C241.776 197.066 253.119 184.768 261.403 187.821C261.403 187.821 251.702 200.583 240.253 200.91L241.776 197.066Z" fill="#3D6CB9"/>
<path d="M246.906 183.132C246.906 183.132 259.441 171.355 264.891 173.427C264.891 173.427 255.844 186.512 246.361 185.749L246.906 183.132Z" fill="#3D6CB9"/>
<path d="M251.92 170.264C251.92 170.264 262.711 156.197 268.597 157.288C268.597 157.288 262.057 169.828 251.92 171.697V170.264Z" fill="#3D6CB9"/>
<path d="M257.359 152.926C257.359 152.926 266.9 142.138 272.05 142.165C272.05 142.165 264.521 156.575 256.969 156.443L257.359 152.926Z" fill="#3D6CB9"/>
<path d="M260.586 141.363L269.796 118.899C269.796 118.899 270.26 139.205 259.41 145.53L260.586 141.363Z" fill="#3D6CB9"/>
<path d="M264.323 116.59C264.323 116.59 265.849 97.8339 264.868 96.3073C264.868 96.3073 271.458 111.885 264.26 124.877L264.323 116.59Z" fill="#3D6CB9"/>
<path d="M232.923 311.717C232.923 311.717 223.366 305.794 217.184 320.285C217.184 320.285 225.686 325.932 234.044 315.413L232.923 311.717Z" fill="#3D6CB9"/>
<path d="M228.723 295.551C228.723 295.551 217.005 290.204 211.318 305.334C211.318 305.334 220.372 311.566 229.789 299.376L228.723 295.551Z" fill="#3D6CB9"/>
<path d="M226.955 282.006C226.955 282.006 218.562 272.192 205.934 282.006C205.934 282.006 213.891 290.621 226.955 284.514V282.006Z" fill="#3D6CB9"/>
<path d="M225.908 266.494C225.908 266.494 217.402 256.24 205.303 265.949C205.303 265.949 214.895 275 225.908 268.893V266.494Z" fill="#3D6CB9"/>
<path d="M226.955 253.888C226.955 253.888 220.991 239.108 208.028 245.464C208.028 245.464 215.035 258.573 226.43 256.341L226.955 253.888Z" fill="#3D6CB9"/>
<path d="M229.778 238.282C229.778 238.282 223.853 223.245 210.703 230.217C210.703 230.217 218.753 243.999 229.194 240.607L229.778 238.282Z" fill="#3D6CB9"/>
<path d="M233.452 224.885C233.452 224.885 231.117 208.396 220.236 206.92C220.236 206.92 222.545 224.305 232 227.853L233.452 224.885Z" fill="#3D6CB9"/>
<path d="M236.392 211.994C236.392 211.994 235.477 192.132 226.465 191.443C226.465 191.443 226.768 206.515 235.376 214.81L236.392 211.994Z" fill="#3D6CB9"/>
<path d="M242.714 196.498C242.714 196.498 240.024 179.985 231.424 177.964C231.424 177.964 232.491 193.959 241.861 200.552L242.714 196.498Z" fill="#3D6CB9"/>
<path d="M247.926 183.253C247.926 183.253 247.833 166.047 242.577 163.519C242.577 163.519 239.319 179.097 246.404 185.449L247.926 183.253Z" fill="#3D6CB9"/>
<path d="M252.321 170.062C252.321 170.062 251.581 152.342 246.143 149.845C246.143 149.845 244.278 163.866 251.504 171.219L252.321 170.062Z" fill="#3D6CB9"/>
<path d="M258.121 154.328C258.121 154.328 258.086 139.918 254.201 136.538C254.201 136.538 250.34 152.326 256.093 157.225L258.121 154.328Z" fill="#3D6CB9"/>
<path d="M260.126 140.654L256.35 116.668C256.35 116.668 251.212 136.324 260.305 144.981L260.126 140.654Z" fill="#3D6CB9"/>
<path d="M260.866 116.816C260.866 116.816 251.161 100.696 251.363 98.901C251.363 98.901 252.391 115.803 264.599 124.215L260.866 116.816Z" fill="#3D6CB9"/>
<path d="M262.003 112.057C262.003 112.057 252.847 89.153 248.705 87.2993C248.705 87.2993 261.785 93.9511 262.766 111.402L262.003 112.057Z" fill="#3D6CB9"/>
<path d="M256.919 156.567L256.292 156.376C264.019 131.167 265.95 115.094 261.723 111.068L262.174 110.592C266.651 114.841 264.837 130.727 256.919 156.567Z" fill="#444053"/>
<path d="M235.64 215.577L234.718 215.25C235.535 212.941 236.419 210.596 237.345 208.283C245.411 188.171 252.278 169.466 256.681 155.103L257.487 154.714C253.076 169.104 246.334 188.53 238.256 208.664C237.334 210.954 236.454 213.291 235.64 215.577Z" fill="#444053"/>
<path d="M255.14 354.351C255.015 354.211 242.488 340.105 233.76 316.013C228.642 301.913 225.791 287.091 225.312 272.098C224.713 253.354 228.645 232.425 235.379 213.416L236.111 214.272C220.995 256.941 227.002 293.507 234.967 315.53C243.609 339.4 255.988 353.358 256.113 353.494L255.14 354.351Z" fill="#444053"/>
<path d="M366.791 191.871H365.125C364.632 191.871 364.233 192.27 364.233 192.763V219.417C364.233 219.91 364.632 220.309 365.125 220.309H366.791C367.283 220.309 367.682 219.91 367.682 219.417V192.763C367.682 192.27 367.283 191.871 366.791 191.871Z" fill="#3A3768"/>
<path d="M250.659 169.591H250.507C250.015 169.591 249.616 169.99 249.616 170.482V178.061C249.616 178.554 250.015 178.953 250.507 178.953H250.659C251.151 178.953 251.55 178.554 251.55 178.061V170.482C251.55 169.99 251.151 169.591 250.659 169.591Z" fill="#3A3768"/>
<path d="M250.834 186.734H250.437C249.945 186.734 249.546 187.134 249.546 187.626V202.137C249.546 202.63 249.945 203.029 250.437 203.029H250.834C251.327 203.029 251.726 202.63 251.726 202.137V187.626C251.726 187.134 251.327 186.734 250.834 186.734Z" fill="#3A3768"/>
<path d="M250.764 208.731H250.472C249.98 208.731 249.581 209.13 249.581 209.622V224.274C249.581 224.766 249.98 225.165 250.472 225.165H250.764C251.256 225.165 251.655 224.766 251.655 224.274V209.622C251.655 209.13 251.256 208.731 250.764 208.731Z" fill="#3A3768"/>
<path d="M350.916 138.652H265.888C257.505 138.652 250.709 145.451 250.709 153.837V358.07C250.709 366.456 257.505 373.255 265.888 373.255H350.916C359.298 373.255 366.094 366.456 366.094 358.07V153.837C366.094 145.451 359.298 138.652 350.916 138.652Z" fill="#3A3768"/>
<path d="M349.818 144.747H336.582V146.34C336.582 147.332 336.387 148.314 336.008 149.229C335.628 150.145 335.072 150.978 334.371 151.679C333.67 152.379 332.838 152.935 331.922 153.314C331.006 153.693 330.025 153.888 329.034 153.888H286.94C285.949 153.888 284.968 153.693 284.052 153.314C283.136 152.935 282.304 152.379 281.603 151.679C280.902 150.978 280.346 150.145 279.967 149.229C279.587 148.314 279.392 147.332 279.392 146.34V144.747H267.001C264.571 144.747 262.24 145.713 260.521 147.433C258.803 149.152 257.837 151.484 257.837 153.915V357.977C257.837 360.408 258.803 362.74 260.521 364.459C262.24 366.178 264.571 367.144 267.001 367.144H349.818C352.248 367.144 354.579 366.178 356.298 364.459C358.016 362.74 358.982 360.408 358.982 357.977V153.931C358.984 152.725 358.748 151.532 358.289 150.418C357.829 149.303 357.154 148.291 356.303 147.438C355.452 146.585 354.441 145.908 353.328 145.447C352.216 144.985 351.023 144.747 349.818 144.747Z" fill="#3D6CB9"/>
<path d="M311.878 145.659H298.779C297.946 145.659 297.272 146.333 297.272 147.166V147.423C297.272 148.255 297.946 148.93 298.779 148.93H311.878C312.71 148.93 313.385 148.255 313.385 147.423V147.166C313.385 146.333 312.71 145.659 311.878 145.659Z" fill="#E6E8EC"/>
<path d="M317.678 149.152C318.704 149.152 319.535 148.32 319.535 147.294C319.535 146.268 318.704 145.437 317.678 145.437C316.653 145.437 315.822 146.268 315.822 147.294C315.822 148.32 316.653 149.152 317.678 149.152Z" fill="#E6E8EC"/>
<path d="M406.042 128.363C406.042 128.363 373.265 126.385 377.126 149.362C377.126 149.362 376.348 153.424 380.038 155.267C380.038 155.267 380.097 153.565 383.402 154.145C384.578 154.34 385.774 154.398 386.964 154.316C388.569 154.211 390.096 153.586 391.316 152.536C391.316 152.536 400.53 148.728 404.112 133.664C404.112 133.664 406.763 130.377 406.658 129.531L401.126 131.895C401.126 131.895 403.018 135.887 401.515 139.205C401.515 139.205 401.336 132.04 400.273 132.195C400.059 132.227 397.4 133.578 397.4 133.578C397.4 133.578 400.651 140.53 398.198 145.585C398.198 145.585 399.129 137.017 396.384 134.08L392.491 136.355C392.491 136.355 396.291 143.536 393.714 149.397C393.714 149.397 394.376 140.409 391.67 136.908L388.143 139.661C388.143 139.661 391.713 146.738 389.537 151.598C389.537 151.598 389.253 141.137 387.38 140.347C387.38 140.347 384.293 143.073 383.822 144.187C383.822 144.187 386.267 149.327 384.749 152.038C384.749 152.038 383.818 145.067 383.055 145.028C383.055 145.028 379.98 149.647 379.661 152.817C379.661 152.817 379.793 148.108 382.312 144.592C382.312 144.592 379.337 145.102 377.601 147.03C377.601 147.03 378.08 143.766 383.071 143.478C383.071 143.478 385.613 139.973 386.29 139.762C386.29 139.762 381.331 139.346 378.321 140.682C378.321 140.682 380.969 137.601 387.201 139.003L390.685 136.156C390.685 136.156 384.153 135.264 381.381 136.25C381.381 136.25 384.569 133.523 391.623 135.51L395.415 133.243C395.415 133.243 389.844 132.043 386.528 132.464C386.528 132.464 390.031 130.575 396.528 132.624L399.253 131.405C399.253 131.405 395.174 130.602 393.979 130.474C392.783 130.345 392.721 130.018 392.721 130.018C395.306 129.587 397.959 129.882 400.386 130.871C400.386 130.871 406.14 128.725 406.042 128.363Z" fill="#3D6CB9"/>
<path d="M372.42 118.144C372.42 118.144 357.627 117.252 359.355 127.635C359.355 127.635 359.009 129.469 360.671 130.303C360.671 130.303 360.698 129.524 362.193 129.792C362.724 129.882 363.264 129.908 363.801 129.87C364.527 129.822 365.218 129.538 365.767 129.06C365.767 129.06 369.932 127.339 371.552 120.531C371.552 120.531 372.747 119.047 372.7 118.666L370.201 119.733C370.201 119.733 371.053 121.536 370.384 123.035C370.384 123.035 370.302 119.799 369.823 119.873C369.726 119.873 368.523 120.5 368.523 120.5C368.523 120.5 369.995 123.643 368.885 125.925C368.885 125.925 369.305 122.054 368.064 120.726L366.304 121.77C366.304 121.77 368.021 125.014 366.857 127.662C366.857 127.662 367.157 123.6 365.934 122.019L364.342 123.265C364.342 123.265 365.954 126.463 364.973 128.659C364.973 128.659 364.84 123.931 363.996 123.573C363.996 123.573 362.602 124.803 362.388 125.31C362.388 125.31 363.493 127.647 362.808 128.858C362.808 128.858 362.388 125.707 362.03 125.691C362.03 125.691 360.64 127.779 360.496 129.197C360.565 127.875 360.979 126.594 361.695 125.481C360.893 125.633 360.153 126.016 359.566 126.583C359.566 126.583 359.784 125.107 362.038 124.979C362.038 124.979 363.205 123.394 363.493 123.296C363.493 123.296 361.251 123.109 359.893 123.713C359.893 123.713 361.088 122.323 363.902 122.954L365.459 121.668C365.459 121.668 362.505 121.279 361.255 121.711C361.255 121.711 362.695 120.481 365.884 121.376L367.597 120.352C367.597 120.352 365.078 119.811 363.579 120.005C363.579 120.005 365.163 119.153 368.099 120.076L369.325 119.526C369.325 119.526 367.48 119.164 366.939 119.106C366.398 119.047 366.37 118.899 366.37 118.899C367.539 118.705 368.739 118.84 369.835 119.289C369.835 119.289 372.467 118.307 372.42 118.144Z" fill="#3D6CB9"/>
<path opacity="0.1" d="M348.685 167.086H268.122V338.15H348.685V167.086Z" fill="black"/>
<path d="M346.217 385.904C346.217 385.904 344.317 381.48 343.469 379.439C342.99 378.271 342.18 378.076 341.561 378.103L341.596 377.714L341.748 375.872L341.779 375.482C343.247 375.175 344.504 374.933 344.504 374.933L343.589 327.685C343.589 327.685 343.2 327.186 342.258 324.18C341.791 322.68 339.533 320.838 337.423 319.37C337.092 319.14 336.769 318.922 336.45 318.712C337.218 318.068 338.026 317.472 338.867 316.928C340.066 316.231 340.463 312.255 340.463 312.255L340.265 312.644C340.463 312.255 340.265 302.102 340.265 302.102L339.564 291.563C339.564 291.563 339.066 279.035 335.173 275.751C331.28 272.468 326.364 271.319 326.364 271.319L323.639 270.618L318.617 269.329C318.477 269.1 318.34 268.858 318.227 268.605C318.177 268.508 318.13 268.406 318.083 268.305C319.618 267.218 320.869 265.78 321.733 264.109C322.596 262.439 323.047 260.586 323.047 258.705C323.048 258.074 322.997 257.443 322.895 256.82C322.895 256.703 322.852 256.583 322.829 256.466C323.241 256.183 323.632 255.869 323.997 255.527C324.591 255.053 325.077 254.457 325.421 253.779C325.475 253.646 325.52 253.509 325.554 253.37C325.554 253.331 325.554 253.292 325.577 253.249C325.601 253.206 325.612 253.042 325.624 252.937C325.624 252.898 325.624 252.859 325.624 252.82C325.624 252.708 325.624 252.591 325.624 252.478C325.624 252.45 325.624 252.423 325.624 252.392C325.624 252.264 325.604 252.135 325.585 252.003C325.587 251.995 325.587 251.987 325.585 251.979C325.514 251.527 325.396 251.083 325.235 250.655C324.845 249.65 324.339 248.708 324.156 247.637C323.931 246.371 324.191 244.989 323.588 243.851C323.337 243.421 322.995 243.052 322.585 242.77C322.175 242.488 321.708 242.3 321.217 242.22C320.229 242.067 319.218 242.183 318.29 242.555C317.836 242.77 317.346 242.902 316.845 242.944C316.481 242.923 316.124 242.836 315.791 242.687C314.635 242.233 313.537 241.644 312.521 240.93C311.789 240.353 311.007 239.842 310.185 239.404C309.772 239.188 309.316 239.066 308.85 239.048C308.384 239.029 307.92 239.113 307.491 239.295C306.051 240.027 305.778 242.068 304.439 242.967C303.516 243.59 302.313 243.528 301.2 243.567C300.087 243.606 298.825 243.883 298.277 244.848C297.887 245.518 297.981 246.317 298.055 247.099L298.078 247.364C298.078 247.458 298.078 247.555 298.101 247.649C298.163 248.65 298.013 249.653 297.661 250.593C297.124 252.018 296.104 253.424 296.139 254.877C296.143 255.108 296.173 255.338 296.229 255.562C296.259 255.674 296.296 255.785 296.338 255.893C296.552 256.375 296.793 256.844 297.058 257.299L297.093 257.361C297.12 257.416 297.148 257.471 297.171 257.525C297.194 257.58 297.241 257.673 297.268 257.747C297.296 257.821 297.299 257.821 297.311 257.856C297.323 257.891 297.362 258 297.381 258.074C297.445 258.294 297.473 258.523 297.463 258.752C297.417 259.047 297.392 259.345 297.389 259.644C297.39 259.793 297.443 259.938 297.538 260.053C297.633 260.169 297.764 260.248 297.911 260.278C298.071 260.274 298.228 260.226 298.362 260.138C298.711 259.939 299.043 259.711 299.355 259.457C299.355 259.581 299.355 259.706 299.378 259.846C299.649 262.634 300.904 265.233 302.917 267.18C302.917 267.3 302.917 267.425 302.89 267.569C302.862 267.713 302.87 267.849 302.862 267.994L298.502 269.364C298.502 269.364 298.526 269.442 298.572 269.575L298.113 269.758C295.851 270.673 293.333 271.81 291.923 272.842C291.301 273.294 290.732 273.664 290.222 273.972C288.371 275.105 286.951 276.826 286.189 278.859L286.131 279.007C285.742 279.899 283.834 285.967 283.834 285.967C283.834 285.967 282.436 289.347 282.234 291.536C282.234 291.536 279.937 298.791 280.537 303.566C280.537 303.566 278.738 310.428 279.439 311.519C279.439 311.519 278.723 314.471 281.868 317.442C281.638 317.583 281.389 317.734 281.128 317.902C278.692 319.436 275.176 321.925 274.577 323.845C273.646 326.832 273.245 327.35 273.245 327.35L272.303 374.524C272.303 374.524 273.561 374.766 275.028 375.07L275.06 375.459L275.211 377.297L275.246 377.687C274.627 377.66 273.818 377.874 273.339 379.026C272.486 381.063 270.614 385.484 270.614 385.484C270.614 385.484 266.421 389.378 268.963 392.992C269.075 393.157 269.206 393.309 269.353 393.444C271.178 395.103 275.071 394.04 277.839 392.957C279.246 392.357 280.458 391.378 281.343 390.13C281.454 389.984 281.595 389.862 281.756 389.773C281.916 389.684 282.094 389.629 282.277 389.612C282.912 389.509 283.51 389.248 284.017 388.852C284.322 388.629 284.569 388.336 284.735 387.997C284.902 387.658 284.984 387.283 284.975 386.905C284.973 386.886 284.973 386.866 284.975 386.847L284.729 381.305C284.729 381.305 284.43 377.434 283.476 377.683L283.231 377.741L283.164 377.352L283.036 376.6L282.97 376.211H283.499C283.499 376.211 283.632 371.833 285.232 368.391C286.832 364.948 287.883 337.137 287.883 337.137C287.883 337.137 307.686 337.46 308.347 335.603C308.737 335.603 309.161 335.603 309.566 335.575C310.232 337.433 328.921 337.523 328.921 337.523C328.921 337.523 329.984 365.365 331.58 368.811C331.917 369.549 332.197 370.312 332.417 371.093C332.919 372.899 333.221 374.755 333.316 376.627H333.846L333.776 377.017L333.647 377.765L333.581 378.154L333.328 378.096C332.382 377.85 332.082 381.721 332.082 381.721L331.829 387.298C331.809 387.675 331.884 388.05 332.046 388.39C332.207 388.73 332.451 389.024 332.756 389.246C333.271 389.65 333.88 389.918 334.527 390.025C334.71 390.039 334.888 390.093 335.049 390.181C335.21 390.27 335.351 390.392 335.461 390.539C336.346 391.786 337.559 392.765 338.965 393.366C341.954 394.535 346.252 395.676 347.848 393.405C350.41 389.783 346.217 385.904 346.217 385.904ZM295.882 316.449H295.929H295.882ZM327.162 300.528C327.162 300.528 327.664 302.417 328.559 303.41C329.454 304.403 329.011 310.572 329.011 310.572C328.658 310.595 328.309 310.651 327.967 310.74C327.278 306.639 326.644 302.086 327.162 300.528Z" fill="url(#paint0_linear)"/>
<path d="M284.102 378.267L276.274 379.046L276.056 376.425L275.904 374.622L275.69 371.985L283.086 372.375L283.674 375.759L283.799 376.495H283.803L284.102 378.267Z" fill="#8E6F7F"/>
<path d="M341.113 372.379L340.899 375.011L340.751 376.814L340.529 379.435L332.697 378.657L333.008 376.885L333.129 376.152L333.717 372.768L341.113 372.379Z" fill="#8E6F7F"/>
<path d="M332.818 334.45L309.539 335.544C308.48 335.596 307.421 335.596 306.362 335.544L284.122 334.454V316.827H332.818V334.45Z" fill="#5F5570"/>
<path opacity="0.1" d="M332.818 334.45L309.539 335.544C308.48 335.596 307.421 335.596 306.362 335.544L284.122 334.454V316.827H332.818V334.45Z" fill="black"/>
<path d="M303.006 269.337C303.006 269.337 295.252 271.943 292.332 274.085C291.725 274.529 291.164 274.895 290.674 275.195C288.87 276.307 287.49 277.99 286.753 279.977C286.734 280.032 286.714 280.078 286.695 280.121C286.306 280.997 284.457 286.937 284.457 286.937C284.457 286.937 283.094 290.247 282.899 292.389C282.705 294.531 293.994 300.275 293.994 300.275C293.994 300.275 288.544 312.154 290.977 315.172C293.41 318.19 328.933 319.65 328.154 315.172C327.375 310.693 326.013 303.293 326.694 301.249L338.762 292.486C338.762 292.486 338.275 280.218 334.48 277.005C330.684 273.792 325.916 272.624 325.916 272.624L318.36 270.677C318.36 270.677 315.697 277.298 312.777 278.174C309.858 279.05 303.462 275.004 303.006 269.337Z" fill="#EAEAF2"/>
<path opacity="0.1" d="M313.898 280.487C313.898 280.487 310.605 283.237 308.877 280.487C308.877 280.487 307.319 285.137 308.877 286.695L308.818 287.011L308.542 288.397L304.937 318.385L307.903 323.506L313.303 316.73L312.867 288.689L312.672 287.081L312.625 286.691H313.548C313.548 286.691 315.997 282.458 313.898 280.487Z" fill="black"/>
<path opacity="0.1" d="M314.677 280.487C314.677 280.487 311.384 283.237 309.655 280.487C309.655 280.487 308.098 285.137 309.655 286.695L309.597 287.011L309.32 288.397L305.716 318.385L308.682 323.506L314.081 316.73L313.645 288.689L313.451 287.081L313.404 286.691H314.327C314.327 286.691 316.775 282.458 314.677 280.487Z" fill="black"/>
<path d="M313.692 316.344L308.293 323.109L305.319 318.015L308.927 288.011L309.204 286.625L309.266 286.306L309.753 285.044L313.015 286.306L313.062 286.695L313.256 288.304L313.692 316.344Z" fill="#BC8487"/>
<path opacity="0.1" d="M283.674 375.755C281.994 375.744 280.319 375.574 278.672 375.245C277.858 375.042 276.838 374.817 275.908 374.618L275.69 371.981L283.086 372.371L283.674 375.755Z" fill="black"/>
<path d="M308.351 335.579C307.705 337.398 288.404 337.079 288.404 337.079C288.404 337.079 287.369 364.34 285.811 367.717C284.254 371.093 284.122 375.373 284.122 375.373C284.122 375.373 280.751 375.373 278.672 374.855C276.593 374.338 273.222 373.687 273.222 373.687L274.133 327.44C274.133 327.44 274.522 326.953 275.429 324.028C276.013 322.147 279.439 319.709 281.81 318.186C283.133 317.353 284.122 316.808 284.122 316.808L295.637 317.275L302.745 317.563C302.745 317.563 309.001 333.76 308.351 335.579Z" fill="#5F5570"/>
<path opacity="0.1" d="M284.106 378.263L276.274 379.042L276.052 376.421C276.345 376.429 276.635 376.493 276.905 376.608C278.333 377.636 282.417 376.818 283.799 376.491L284.106 378.263Z" fill="black"/>
<path d="M285.586 385.838C285.595 386.208 285.514 386.574 285.351 386.906C285.188 387.238 284.946 387.525 284.647 387.742C284.155 388.129 283.572 388.385 282.954 388.486C282.776 388.502 282.603 388.555 282.446 388.642C282.29 388.729 282.154 388.849 282.047 388.993C281.182 390.214 279.996 391.172 278.621 391.762C275.924 392.821 272.128 393.861 270.349 392.237C270.202 392.106 270.071 391.958 269.96 391.797C267.48 388.245 271.567 384.444 271.567 384.444C271.567 384.444 273.413 380.113 274.242 378.119C274.331 377.86 274.474 377.624 274.662 377.424C274.849 377.224 275.076 377.066 275.329 376.961C275.581 376.855 275.853 376.803 276.126 376.81C276.4 376.816 276.669 376.88 276.916 376.997C278.473 378.119 283.195 377.044 284.118 376.807C285.041 376.569 285.336 380.355 285.336 380.355L285.586 385.78C285.584 385.799 285.584 385.819 285.586 385.838Z" fill="#BC8487"/>
<path opacity="0.1" d="M341.117 372.375L340.899 375.007C339.969 375.206 338.953 375.432 338.131 375.634C336.485 375.964 334.812 376.136 333.133 376.148L333.721 372.764L341.117 372.375Z" fill="black"/>
<path d="M343.589 374.077C343.589 374.077 340.218 374.727 338.139 375.245C336.061 375.763 332.689 375.763 332.689 375.763C332.689 375.763 332.561 371.479 331.004 368.106C329.447 364.734 328.407 337.468 328.407 337.468C328.407 337.468 310.196 337.363 309.546 335.544C308.896 333.725 317.484 318.019 317.484 318.019L322.72 317.746L332.689 317.216C332.689 317.216 334.636 318.276 336.676 319.705C338.716 321.134 340.931 322.949 341.386 324.417C342.293 327.342 342.682 327.829 342.682 327.829L343.589 374.077Z" fill="#5F5570"/>
<path opacity="0.1" d="M340.751 376.811L340.533 379.432L332.697 378.653L333.008 376.881C334.39 377.212 338.458 378.026 339.899 376.997C340.169 376.882 340.458 376.819 340.751 376.811Z" fill="black"/>
<path d="M339.899 377.387C340.146 377.269 340.416 377.204 340.69 377.198C340.964 377.191 341.236 377.242 341.489 377.348C341.742 377.454 341.97 377.612 342.157 377.812C342.345 378.012 342.488 378.249 342.577 378.509C343.403 380.503 345.252 384.837 345.252 384.837C345.252 384.837 349.339 388.634 346.859 392.186C345.302 394.414 341.113 393.296 338.202 392.151C336.825 391.564 335.639 390.605 334.776 389.382C334.669 389.238 334.532 389.118 334.375 389.031C334.218 388.944 334.044 388.891 333.865 388.876C333.233 388.766 332.638 388.498 332.137 388.097C331.842 387.879 331.606 387.591 331.449 387.259C331.292 386.928 331.219 386.563 331.237 386.196L331.483 380.744C331.483 380.744 331.775 376.955 332.697 377.192C333.62 377.43 338.342 378.509 339.899 377.387Z" fill="#BC8487"/>
<path d="M319.777 272.624L311.917 280.958L311.699 281.192L311.415 281.025C309.772 280.051 301.554 275.089 302.259 273.598C302.648 272.749 302.878 270.981 302.998 269.458C302.998 269.275 303.022 269.096 303.037 268.92C303.115 267.717 303.135 266.782 303.135 266.782C303.135 266.782 317.928 264.251 317.344 266.782C317.106 267.807 317.46 268.959 317.963 269.968C318.111 270.26 318.274 270.537 318.434 270.798C318.827 271.445 319.276 272.056 319.777 272.624Z" fill="#FFC4D0"/>
<path opacity="0.1" d="M317.963 269.968C315.756 271.595 313.042 272.383 310.307 272.191C307.573 271.999 304.996 270.84 303.037 268.92C303.115 267.717 303.135 266.782 303.135 266.782C303.135 266.782 317.928 264.251 317.344 266.782C317.118 267.814 317.46 268.959 317.963 269.968Z" fill="black"/>
<path d="M322.661 260.275C322.704 263.272 321.58 266.169 319.528 268.354C317.475 270.538 314.655 271.839 311.661 271.981C308.668 272.124 305.737 271.097 303.486 269.118C301.236 267.138 299.842 264.361 299.6 261.373C299.569 261.009 299.553 260.643 299.553 260.275C299.525 258.74 299.803 257.214 300.371 255.788C300.938 254.362 301.784 253.063 302.86 251.967C303.935 250.872 305.217 250.001 306.632 249.407C308.047 248.813 309.567 248.507 311.101 248.507C312.636 248.507 314.155 248.813 315.57 249.407C316.985 250.001 318.268 250.872 319.343 251.967C320.418 253.063 321.264 254.362 321.832 255.788C322.4 257.214 322.678 258.74 322.65 260.275H322.661Z" fill="#FFC4D0"/>
<path opacity="0.1" d="M322.517 258.429C322.217 258.674 321.868 258.852 321.494 258.954C321.119 259.055 320.728 259.077 320.345 259.017C318.562 258.627 317.951 255.901 316.129 255.714C314.307 255.527 313.097 258.051 311.251 258C310.473 257.981 309.772 257.471 309.056 257.116C307.802 256.497 305.739 256.119 304.384 256.586C302.348 257.284 301.659 259.169 300.359 260.668C300.137 260.923 299.893 261.159 299.631 261.373C299.6 261.009 299.584 260.643 299.584 260.275C299.558 257.352 300.639 254.528 302.611 252.372C304.582 250.215 307.297 248.886 310.209 248.652C313.121 248.418 316.013 249.296 318.304 251.11C320.594 252.925 322.112 255.539 322.552 258.429H322.517Z" fill="black"/>
<path d="M309.056 256.731C309.772 257.081 310.457 257.595 311.251 257.615C313.093 257.661 314.296 255.126 316.125 255.325C317.955 255.523 318.558 258.226 320.349 258.627C321.552 258.9 322.685 258 323.584 257.163C324.165 256.7 324.639 256.117 324.974 255.453C325.363 254.487 325.161 253.374 324.799 252.392C324.436 251.411 323.927 250.468 323.747 249.436C323.529 248.198 323.783 246.842 323.195 245.729C322.951 245.308 322.618 244.946 322.218 244.67C321.818 244.394 321.362 244.21 320.882 244.132C319.919 243.982 318.934 244.094 318.029 244.455C317.588 244.669 317.112 244.801 316.624 244.845C316.267 244.823 315.918 244.737 315.592 244.591C314.466 244.147 313.397 243.571 312.408 242.874C311.698 242.307 310.938 241.807 310.138 241.378C309.736 241.167 309.292 241.048 308.838 241.03C308.384 241.012 307.932 241.095 307.514 241.273C306.113 241.99 305.844 243.999 304.54 244.868C303.641 245.475 302.469 245.413 301.387 245.456C300.305 245.499 299.051 245.76 298.537 246.706C298.078 247.52 298.308 248.521 298.366 249.452C298.424 250.432 298.277 251.414 297.934 252.334C297.331 253.946 296.104 255.535 296.54 257.202C296.824 258.296 297.805 259.204 297.747 260.317C297.701 260.605 297.676 260.895 297.673 261.186C297.674 261.332 297.726 261.474 297.818 261.587C297.911 261.701 298.04 261.779 298.183 261.809C298.339 261.807 298.491 261.758 298.619 261.669C299.266 261.307 299.847 260.836 300.336 260.279C301.652 258.775 302.333 256.894 304.369 256.197C305.743 255.741 307.802 256.107 309.056 256.731Z" fill="#8E6F7F"/>
<path d="M322.451 324.713L320.349 325.286L315.495 326.622C314.371 327.459 313.107 328.088 311.761 328.479C308.791 329.231 306.872 327.595 305.276 325.064C304.633 324.051 304.957 323.241 305.797 322.606C307.822 321.076 312.828 320.577 314.362 320.78C315.369 320.862 316.382 320.705 317.316 320.32C317.98 320.079 318.62 319.776 319.228 319.417L322.451 324.713Z" fill="#FFC4D0"/>
<path opacity="0.1" d="M322.451 324.713L320.349 325.286C319.746 323.467 318.753 321.185 317.332 320.309C317.996 320.067 318.636 319.765 319.243 319.405L322.451 324.713Z" fill="black"/>
<path opacity="0.1" d="M336.668 319.705C335.796 320.41 335.056 321.053 335.056 321.053C335.056 321.053 324.935 324.227 322.988 328.219C322.988 328.219 321.431 320.429 318.122 320.332C318.122 320.332 321.684 318.934 322.712 317.738L332.689 317.216C332.689 317.216 334.636 318.276 336.668 319.705Z" fill="black"/>
<path d="M336.516 289.176L338.754 292.486L339.436 302.807C339.436 302.807 339.63 312.738 339.436 313.127L339.63 312.738C339.63 312.738 339.241 316.632 338.073 317.314C336.905 317.995 334.278 320.274 334.278 320.274C334.278 320.274 324.156 323.448 322.21 327.44C322.21 327.44 320.653 319.651 317.344 319.553C317.344 319.553 322.307 317.606 322.21 316.34C322.21 316.34 326.005 312.933 326.297 312.056C326.589 311.18 328.485 311.083 328.485 311.083C328.485 311.083 328.925 305.046 328.049 304.072C327.173 303.099 326.687 301.249 326.687 301.249L336.516 289.176Z" fill="#EAEAF2"/>
<path opacity="0.1" d="M311.761 328.468C308.791 329.219 306.872 327.584 305.276 325.052C304.633 324.04 304.957 323.23 305.797 322.595L306.101 322.716C306.101 322.716 311.454 325.037 311.761 328.468Z" fill="black"/>
<path d="M310.531 331.579C307.028 336.448 300.507 329.679 300.02 328.316C299.845 327.821 299.18 327.381 298.413 327.027C297.44 326.602 296.43 326.266 295.396 326.026L301.188 321.306L302.298 321.75L305.712 323.117C305.712 323.117 314.035 326.711 310.531 331.579Z" fill="#FFC4D0"/>
<path opacity="0.1" d="M302.298 321.75C299.106 323.269 298.424 325.453 298.405 327.027C297.432 326.602 296.422 326.266 295.388 326.026L301.181 321.306L302.298 321.75Z" fill="black"/>
<path opacity="0.1" d="M297.198 330.166C297.198 330.166 287.855 322.766 283.378 319.553C282.818 319.154 282.297 318.703 281.821 318.206C283.145 317.372 284.134 316.827 284.134 316.827L295.649 317.294C295.956 317.828 296.139 318.19 296.139 318.19L302.368 322.279C294.862 324.713 297.198 330.166 297.198 330.166Z" fill="black"/>
<path d="M284.741 291.318L282.892 292.389C282.892 292.389 280.653 299.496 281.237 304.17C281.237 304.17 279.486 310.888 280.167 311.959C280.167 311.959 279.291 315.561 283.768 318.774C288.245 321.987 297.587 329.387 297.587 329.387C297.587 329.387 295.252 323.935 302.745 321.5L296.517 317.411C296.517 317.411 294.426 313.26 292.429 312.348C292.429 312.348 290.872 310.791 291.845 309.72C292.819 308.649 293.597 307.48 293.597 306.409C293.597 305.338 293.987 300.275 293.987 300.275L295.154 294.823L284.741 291.318Z" fill="#EAEAF2"/>
<path opacity="0.1" d="M313.061 286.691H309.266C309.243 286.67 309.222 286.646 309.204 286.621L309.266 286.302L309.753 285.04L313.015 286.302L313.061 286.691Z" fill="black"/>
<path d="M314.288 280.098C314.288 280.098 310.994 282.847 309.266 280.098C309.266 280.098 307.709 284.748 309.266 286.306H313.937C313.937 286.306 316.386 282.068 314.288 280.098Z" fill="#BC8487"/>
<path opacity="0.1" d="M318.741 271.066L323.646 272.332C323.646 272.332 318.998 284.405 317.974 284.405L312.088 281.582L318.741 271.066Z" fill="black"/>
<path opacity="0.1" d="M319.777 272.624L311.917 280.958L311.699 281.192L311.415 281.025L318.286 270.541L318.453 270.817C318.841 271.457 319.284 272.061 319.777 272.624Z" fill="black"/>
<path d="M318.352 270.677L323.257 271.943C323.257 271.943 318.609 284.016 317.585 284.016L311.699 281.192L318.352 270.677Z" fill="#EAEAF2"/>
<path opacity="0.1" d="M302.617 269.727L298.366 271.066C298.366 271.066 302.551 283.724 303.719 284.405L311.31 281.582L302.617 269.727Z" fill="black"/>
<path opacity="0.1" d="M311.917 280.958L311.699 281.192C311.699 281.192 301.48 275.253 302.259 273.598C302.648 272.749 302.878 270.981 302.999 269.458V269.22L311.917 280.958Z" fill="black"/>
<path d="M303.006 269.337L298.755 270.677C298.755 270.677 302.94 283.334 304.108 284.016L311.699 281.192L303.006 269.337Z" fill="#EAEAF2"/>
<path opacity="0.1" d="M292.881 290.013C292.881 290.013 295.442 290.469 295.396 293.129C295.349 295.789 296.451 289.69 296.451 289.69L292.881 290.013Z" fill="black"/>
<path opacity="0.1" d="M293.465 298.192C293.465 298.192 292.752 302.215 293.465 305.852C294.177 309.49 294.115 310.72 294.668 310.915C295.22 311.11 293.465 298.192 293.465 298.192Z" fill="black"/>
<path opacity="0.1" d="M326.165 297.802C325.961 297.828 325.764 297.899 325.59 298.009C325.416 298.119 325.268 298.265 325.157 298.439C325.045 298.612 324.973 298.808 324.946 299.012C324.918 299.216 324.936 299.424 324.997 299.621C325.324 301.249 326.165 297.802 326.165 297.802Z" fill="black"/>
<path opacity="0.1" d="M281.658 311.433C281.658 311.433 290 310.72 291.39 312.212C292.78 313.704 281.658 311.433 281.658 311.433Z" fill="black"/>
<path opacity="0.1" d="M330.058 311.998C330.058 311.998 336.158 311.246 337.587 312.286L330.058 311.998Z" fill="black"/>
<path opacity="0.1" d="M332.526 312.991C332.526 312.991 336.158 313.119 337.003 313.575L332.526 312.991Z" fill="black"/>
<path opacity="0.1" d="M333.238 314.296C333.238 314.296 336.547 314.167 337.003 314.685L333.238 314.296Z" fill="black"/>
<path opacity="0.1" d="M286.574 332.6C286.574 332.6 289.408 334.076 289.12 335.583C288.832 337.09 286.574 332.6 286.574 332.6Z" fill="black"/>
<path opacity="0.1" d="M284.122 333.316C284.122 333.316 288.447 338.928 287.859 340.778C287.271 342.628 284.122 333.316 284.122 333.316Z" fill="black"/>
<path opacity="0.1" d="M330.482 334.247C330.482 334.247 328.341 336.011 328.399 337.468L330.482 334.247Z" fill="black"/>
<path opacity="0.1" d="M281.043 369.014C281.043 369.014 281.043 370.669 284.106 373.103L281.043 369.014Z" fill="black"/>
<path opacity="0.1" d="M335.118 365.119C335.118 365.119 334.791 368.562 331.81 370.346L335.118 365.119Z" fill="black"/>
<g opacity="0.1">
<path opacity="0.1" d="M298.366 248.268C298.366 247.999 298.319 247.723 298.296 247.45C298.246 248.045 298.264 248.643 298.35 249.234C298.377 248.912 298.382 248.59 298.366 248.268Z" fill="black"/>
<path opacity="0.1" d="M297.747 259.149C297.805 258.02 296.824 257.112 296.54 256.033C296.526 255.981 296.515 255.928 296.509 255.874C296.42 256.313 296.431 256.767 296.54 257.202C296.77 258.094 297.463 258.857 297.681 259.722C297.7 259.519 297.739 259.336 297.747 259.149Z" fill="black"/>
<path opacity="0.1" d="M324.974 254.285C324.638 254.948 324.164 255.531 323.584 255.995C322.677 256.832 321.552 257.731 320.349 257.459C318.562 257.069 317.947 254.343 316.125 254.156C314.303 253.969 313.093 256.493 311.251 256.442C310.473 256.423 309.772 255.913 309.056 255.558C307.802 254.939 305.743 254.561 304.384 255.029C302.348 255.726 301.659 257.611 300.351 259.11C299.863 259.668 299.284 260.14 298.638 260.504C298.508 260.591 298.355 260.638 298.198 260.641C298.101 260.628 298.009 260.588 297.932 260.526C297.855 260.464 297.796 260.383 297.762 260.29V260.317C297.717 260.606 297.692 260.898 297.688 261.19C297.691 261.336 297.742 261.476 297.835 261.589C297.928 261.701 298.056 261.779 298.198 261.809C298.355 261.806 298.508 261.759 298.638 261.673C299.284 261.308 299.863 260.837 300.351 260.279C301.667 258.779 302.348 256.894 304.384 256.197C305.758 255.73 307.818 256.107 309.056 256.727C309.772 257.081 310.457 257.591 311.251 257.611C313.093 257.657 314.295 255.122 316.125 255.325C317.955 255.527 318.562 258.222 320.349 258.627C321.552 258.9 322.685 258 323.584 257.163C324.164 256.699 324.638 256.116 324.974 255.453C325.19 254.89 325.248 254.279 325.141 253.685C325.108 253.891 325.052 254.092 324.974 254.285Z" fill="black"/>
</g>
<path opacity="0.1" d="M271.571 384.448C271.571 384.448 274.752 383.466 276.071 385.328L271.571 384.448Z" fill="black"/>
<path opacity="0.1" d="M345.252 384.837C345.252 384.837 339.985 384.53 340.191 385.955L345.252 384.837Z" fill="black"/>
<path opacity="0.1" d="M450.41 381.951C456.199 381.951 460.893 381.158 460.893 380.179C460.893 379.201 456.199 378.407 450.41 378.407C444.62 378.407 439.926 379.201 439.926 380.179C439.926 381.158 444.62 381.951 450.41 381.951Z" fill="#3D6CB9"/>
<path opacity="0.1" d="M149.46 396.493C155.25 396.493 159.944 395.7 159.944 394.721C159.944 393.743 155.25 392.949 149.46 392.949C143.67 392.949 138.977 393.743 138.977 394.721C138.977 395.7 143.67 396.493 149.46 396.493Z" fill="#3D6CB9"/>
<path opacity="0.1" d="M190.012 406C195.802 406 200.496 405.207 200.496 404.228C200.496 403.249 195.802 402.456 190.012 402.456C184.222 402.456 179.529 403.249 179.529 404.228C179.529 405.207 184.222 406 190.012 406Z" fill="#3D6CB9"/>
<path d="M427.461 401.817C436.106 401.817 443.114 400.632 443.114 399.169C443.114 397.706 436.106 396.521 427.461 396.521C418.816 396.521 411.808 397.706 411.808 399.169C411.808 400.632 418.816 401.817 427.461 401.817Z" fill="#3D6CB9"/>
<path d="M433.935 394.838C434.648 394.255 435.168 393.468 435.426 392.583C435.621 391.691 435.239 390.636 434.383 390.289C433.425 389.923 432.401 390.589 431.627 391.259C430.852 391.929 429.96 392.696 428.944 392.552C429.467 392.079 429.859 391.478 430.08 390.809C430.302 390.139 430.347 389.424 430.209 388.732C430.164 388.445 430.041 388.176 429.855 387.953C429.326 387.384 428.36 387.626 427.726 388.077C425.702 389.499 425.137 392.252 425.125 394.725C424.919 393.833 425.094 392.903 425.086 391.999C425.079 391.096 424.833 390.052 424.059 389.573C423.581 389.316 423.044 389.19 422.502 389.207C421.591 389.172 420.579 389.265 419.956 389.931C419.177 390.757 419.387 392.143 420.057 393.047C420.726 393.95 421.75 394.531 422.692 395.158C423.446 395.607 424.089 396.221 424.573 396.953C424.631 397.055 424.678 397.164 424.713 397.276H430.4C431.683 396.626 432.872 395.806 433.935 394.838Z" fill="#3D6CB9"/>
<path d="M190.553 360.679C190.553 360.679 192.694 363.48 189.568 367.69C186.442 371.9 183.865 375.479 184.897 378.115C184.897 378.115 189.615 370.268 193.461 370.159C197.307 370.05 194.777 365.4 190.553 360.679Z" fill="#3D6CB9"/>
<path opacity="0.1" d="M190.553 360.679C190.74 360.95 190.887 361.247 190.989 361.56C194.734 365.96 196.731 370.069 193.13 370.17C189.779 370.268 185.757 376.265 184.792 377.78C184.823 377.897 184.862 378.01 184.905 378.127C184.905 378.127 189.623 370.279 193.469 370.17C197.315 370.061 194.777 365.4 190.553 360.679Z" fill="black"/>
<path d="M194.528 364.247C194.528 365.232 194.419 366.03 194.282 366.03C194.146 366.03 194.037 365.232 194.037 364.247C194.037 363.261 194.173 363.725 194.31 363.725C194.446 363.725 194.528 363.261 194.528 364.247Z" fill="#FFD037"/>
<path d="M195.894 365.423C195.03 365.894 194.275 366.178 194.212 366.058C194.15 365.937 194.792 365.458 195.657 364.987C196.521 364.516 196.182 364.858 196.244 364.987C196.307 365.115 196.758 364.952 195.894 365.423Z" fill="#FFD037"/>
<path d="M179.26 360.679C179.26 360.679 177.119 363.48 180.245 367.69C183.371 371.9 185.948 375.479 184.916 378.115C184.916 378.115 180.202 370.268 176.352 370.159C172.502 370.05 175.028 365.4 179.26 360.679Z" fill="#3D6CB9"/>
<path opacity="0.1" d="M179.26 360.679C179.073 360.951 178.925 361.247 178.82 361.56C175.075 365.96 173.082 370.069 176.679 370.17C180.035 370.268 184.056 376.265 185.021 377.78C184.99 377.898 184.951 378.014 184.905 378.127C184.905 378.127 180.19 370.279 176.34 370.17C172.49 370.061 175.028 365.4 179.26 360.679Z" fill="black"/>
<path d="M175.281 364.247C175.281 365.232 175.394 366.03 175.531 366.03C175.667 366.03 175.776 365.232 175.776 364.247C175.776 363.261 175.64 363.725 175.503 363.725C175.367 363.725 175.281 363.261 175.281 364.247Z" fill="#FFD037"/>
<path d="M173.919 365.423C174.783 365.894 175.534 366.178 175.601 366.058C175.667 365.937 175.017 365.458 174.152 364.987C173.288 364.516 173.631 364.858 173.565 364.987C173.498 365.115 173.055 364.952 173.919 365.423Z" fill="#FFD037"/>
<path d="M175.963 377.761C175.963 377.761 181.942 377.574 183.748 376.293C185.555 375.011 192.947 373.473 193.391 375.533C193.835 377.593 202.38 385.772 195.629 385.826C188.879 385.881 179.941 384.775 178.143 383.68C176.344 382.586 175.963 377.761 175.963 377.761Z" fill="#A8A8A8"/>
<path opacity="0.2" d="M195.746 385.11C188.996 385.164 180.058 384.058 178.259 382.964C176.893 382.127 176.344 379.132 176.161 377.753H175.963C175.963 377.753 176.352 382.574 178.139 383.673C179.926 384.771 188.875 385.873 195.626 385.819C197.572 385.819 198.245 385.11 198.21 384.082C197.938 384.713 197.194 385.098 195.746 385.11Z" fill="black"/>
</g>
<defs>
<linearGradient id="paint0_linear" x1="268.122" y1="316.87" x2="348.685" y2="316.87" gradientUnits="userSpaceOnUse">
<stop stop-color="#808080" stop-opacity="0.25"/>
<stop offset="0.54" stop-color="#808080" stop-opacity="0.12"/>
<stop offset="1" stop-color="#808080" stop-opacity="0.1"/>
</linearGradient>
<clipPath id="clip0">
<rect x="114" y="79" width="393" height="327" fill="white"/>
</clipPath>
</defs>
</svg>
