<svg width="19" height="23" viewBox="0 0 19 23" fill="none" xmlns="http://www.w3.org/2000/svg">
<path d="M17.6458 8.625H16.2083V6.70832C16.2083 3.00932 13.199 0 9.5 0C5.80095 0 2.79168 3.00932 2.79168 6.70832V8.625H1.35418C1.08932 8.625 0.875 8.83932 0.875 9.10418V21.0834C0.875 22.1404 1.73458 23 2.79168 23H16.2084C17.2654 23 18.125 22.1404 18.125 21.0833V9.10418C18.125 8.83932 17.9107 8.625 17.6458 8.625ZM10.9347 18.6346C10.9497 18.7698 10.9062 18.9056 10.8154 19.0071C10.7246 19.1086 10.5945 19.1667 10.4584 19.1667H8.54168C8.40552 19.1667 8.27543 19.1086 8.18464 19.0071C8.09386 18.9056 8.05033 18.7699 8.06533 18.6346L8.36761 15.9164C7.87675 15.5594 7.58336 14.9946 7.58336 14.375C7.58336 13.3179 8.44294 12.4583 9.50004 12.4583C10.5571 12.4583 11.4167 13.3179 11.4167 14.375C11.4167 14.9946 11.1233 15.5594 10.6325 15.9164L10.9347 18.6346ZM13.3333 8.625H5.66668V6.70832C5.66668 4.59465 7.38634 2.875 9.5 2.875C11.6137 2.875 13.3333 4.59465 13.3333 6.70832V8.625Z" fill="#D8D8D8"/>
</svg>
