<svg width="20" height="23" viewBox="0 0 20 23" fill="none" xmlns="http://www.w3.org/2000/svg">
<path d="M9.44946 11.286C10.9715 11.286 12.2896 10.7511 13.3665 9.69593C14.4433 8.6409 14.9893 7.35 14.9893 5.85864C14.9893 4.36781 14.4433 3.07674 13.3663 2.02136C12.2892 0.966495 10.9714 0.431671 9.44946 0.431671C7.9272 0.431671 6.60955 0.966495 5.53265 2.02153C4.45575 3.07656 3.90967 4.36764 3.90967 5.85864C3.90967 7.35 4.45575 8.64107 5.53283 9.6961C6.6099 10.751 7.92773 11.286 9.44946 11.286Z" fill="white"/>
<path d="M19.1425 17.7585C19.1114 17.3194 19.0486 16.8405 18.9561 16.3347C18.8628 15.8252 18.7426 15.3435 18.5987 14.9032C18.45 14.4481 18.2479 13.9988 17.998 13.5681C17.7387 13.1211 17.434 12.7319 17.0922 12.4116C16.7348 12.0766 16.2971 11.8072 15.7911 11.6107C15.2867 11.4152 14.7278 11.3162 14.13 11.3162C13.8952 11.3162 13.6681 11.4106 13.2296 11.6903C12.9598 11.8627 12.6441 12.0621 12.2917 12.2827C11.9904 12.4708 11.5823 12.647 11.0781 12.8065C10.5863 12.9625 10.0869 13.0415 9.59396 13.0415C9.10104 13.0415 8.60182 12.9625 8.10943 12.8065C7.60582 12.6472 7.19766 12.471 6.89672 12.2829C6.5477 12.0644 6.23184 11.865 5.95792 11.6901C5.51994 11.4104 5.2927 11.316 5.05791 11.316C4.45989 11.316 3.90117 11.4152 3.39703 11.6109C2.89131 11.807 2.4535 12.0764 2.09571 12.4118C1.75405 12.7323 1.44925 13.1213 1.19025 13.5681C0.940549 13.9988 0.738402 14.448 0.589598 14.9034C0.445884 15.3436 0.325683 15.8252 0.23233 16.3347C0.139854 16.8398 0.0770338 17.3189 0.0459746 17.759C0.0154419 18.1902 0 18.6377 0 19.0896C0 20.2659 0.38166 21.2181 1.13427 21.9204C1.87759 22.6134 2.86113 22.9649 4.05717 22.9649H15.1318C16.3278 22.9649 17.311 22.6135 18.0545 21.9204C18.8073 21.2186 19.189 20.2662 19.189 19.0895C19.1888 18.6354 19.1732 18.1876 19.1425 17.7585Z" fill="white"/>
</svg>
