<svg width="385" height="362" viewBox="0 0 385 362" fill="none" xmlns="http://www.w3.org/2000/svg">
<g opacity="0.5">
<path opacity="0.5" d="M227.149 22.8027L73.8778 23.1753C72.2073 23.179 70.6067 23.8464 69.4281 25.0309C68.2495 26.2153 67.5895 27.8196 67.5932 29.4909L68.2903 316.305C68.2947 317.976 68.9626 319.578 70.1469 320.756C71.3313 321.935 72.9351 322.595 74.6056 322.59L227.877 322.217C228.704 322.216 229.523 322.051 230.286 321.732C231.05 321.414 231.743 320.948 232.327 320.362C232.91 319.775 233.373 319.08 233.688 318.314C234.003 317.549 234.164 316.729 234.162 315.902L233.465 29.0877C233.46 27.4164 232.792 25.8153 231.608 24.6366C230.424 23.4579 228.82 22.7983 227.149 22.8027Z" fill="url(#paint0_linear)"/>
</g>
<path d="M224.932 26.7209L76.1142 27.0829C72.6428 27.0913 69.8356 29.9137 69.844 33.3867L70.5216 312.263C70.53 315.736 73.351 318.545 76.8223 318.536L225.64 318.175C229.111 318.166 231.919 315.344 231.91 311.871L231.232 32.9942C231.224 29.5211 228.403 26.7125 224.932 26.7209Z" fill="white"/>
<path opacity="0.3" d="M191.083 34.1099C190.624 37.2015 189.074 40.0267 186.714 42.0745C184.354 44.1223 181.339 45.2577 178.215 45.2754L122.471 45.411C119.347 45.4085 116.327 44.2878 113.957 42.2515C111.587 40.2151 110.023 37.3976 109.549 34.3082L80.0222 34.3801C78.3965 34.384 76.8389 35.0339 75.6922 36.1869C74.5454 37.3398 73.9034 38.9012 73.9074 40.5278L74.5502 305.102C74.5521 305.908 74.7126 306.705 75.0225 307.448C75.3323 308.192 75.7855 308.867 76.3561 309.435C76.9267 310.003 77.6035 310.453 78.3479 310.759C79.0924 311.066 79.8898 311.222 80.6948 311.22L221.732 310.877C222.537 310.875 223.334 310.715 224.077 310.405C224.819 310.095 225.494 309.641 226.062 309.071C226.63 308.5 227.08 307.823 227.386 307.078C227.692 306.333 227.849 305.535 227.847 304.73L227.204 40.1549C227.202 39.3496 227.041 38.5525 226.732 37.8091C226.422 37.0658 225.969 36.3908 225.398 35.8227C224.827 35.2546 224.151 34.8045 223.406 34.4982C222.662 34.1918 221.864 34.0351 221.059 34.037L191.083 34.1099Z" fill="#3D6CB9"/>
<path d="M166.133 37.4514L132.016 37.9646C131.507 37.9722 131.101 38.3913 131.108 38.9007L131.114 39.3047C131.122 39.8141 131.541 40.2208 132.05 40.2132L166.166 39.7C166.676 39.6924 167.082 39.2732 167.074 38.7639L167.068 38.3598C167.061 37.8505 166.642 37.4437 166.133 37.4514Z" fill="#DBDBDB"/>
<path d="M174.709 39.5713C175.454 39.5713 176.058 38.9672 176.058 38.222C176.058 37.4768 175.454 36.8727 174.709 36.8727C173.965 36.8727 173.361 37.4768 173.361 38.222C173.361 38.9672 173.965 39.5713 174.709 39.5713Z" fill="#DBDBDB"/>
<g opacity="0.5">
<path opacity="0.5" d="M47.1087 60.3065H45.7258V68.1469H47.1087V60.3065Z" fill="#47E6B1"/>
<path opacity="0.5" d="M50.3355 64.9185V63.5349H42.499V64.9185H50.3355Z" fill="#47E6B1"/>
</g>
<g opacity="0.5">
<path opacity="0.5" d="M58.172 109.462H56.7891V117.303H58.172V109.462Z" fill="#47E6B1"/>
<path opacity="0.5" d="M61.3988 114.074V112.691H53.5623V114.074H61.3988Z" fill="#47E6B1"/>
</g>
<g opacity="0.5">
<path opacity="0.5" d="M270.218 45.5481H268.835V53.3885H270.218V45.5481Z" fill="#47E6B1"/>
<path opacity="0.5" d="M273.445 50.1601V48.7765H265.609V50.1601H273.445Z" fill="#47E6B1"/>
</g>
<g opacity="0.5">
<path opacity="0.5" d="M381.773 74.411H380.39V82.2514H381.773V74.411Z" fill="#47E6B1"/>
<path opacity="0.5" d="M385 79.023V77.6394H377.164V79.023H385Z" fill="#47E6B1"/>
</g>
<path opacity="0.5" d="M5.66521 105.914C5.28411 105.747 4.97734 105.447 4.8033 105.069C4.62927 104.692 4.60011 104.263 4.72138 103.865C4.74101 103.804 4.75337 103.741 4.75822 103.677C4.76931 103.495 4.72143 103.314 4.62168 103.161C4.52192 103.008 4.3756 102.892 4.20438 102.828C4.03316 102.765 3.84615 102.759 3.67104 102.81C3.49594 102.862 3.34206 102.968 3.2322 103.114C3.19442 103.166 3.16287 103.222 3.13821 103.281C2.97223 103.662 2.67192 103.969 2.29443 104.143C1.91694 104.317 1.48864 104.347 1.09104 104.225C1.03009 104.206 0.967027 104.193 0.903175 104.188C0.721013 104.177 0.540122 104.225 0.387298 104.325C0.234474 104.425 0.11785 104.571 0.0546884 104.743C-0.00847316 104.914 -0.0148073 105.101 0.0366254 105.276C0.0880582 105.451 0.194517 105.605 0.340242 105.715C0.391946 105.753 0.447927 105.785 0.507021 105.809C0.888124 105.975 1.1949 106.276 1.36894 106.653C1.54297 107.031 1.57213 107.46 1.45086 107.857C1.43123 107.918 1.41887 107.982 1.41402 108.045C1.40293 108.228 1.45081 108.409 1.55056 108.562C1.65032 108.714 1.79664 108.831 1.96786 108.894C2.13908 108.958 2.32609 108.964 2.5012 108.912C2.6763 108.861 2.83018 108.754 2.94004 108.609C2.97782 108.557 3.00937 108.501 3.03404 108.442C3.20001 108.06 3.50033 107.754 3.87782 107.579C4.25531 107.405 4.68361 107.376 5.0812 107.497C5.14216 107.517 5.20522 107.529 5.26907 107.534C5.45123 107.545 5.63212 107.498 5.78494 107.398C5.93776 107.298 6.05439 107.152 6.11755 106.98C6.18071 106.809 6.18704 106.622 6.13561 106.447C6.08418 106.271 5.97772 106.117 5.832 106.008C5.78029 105.97 5.72431 105.938 5.66521 105.914Z" fill="#4D8AF0"/>
<path opacity="0.5" d="M354.159 194.003C353.778 193.837 353.471 193.536 353.297 193.158C353.123 192.781 353.094 192.352 353.215 191.955C353.235 191.894 353.247 191.83 353.252 191.767C353.263 191.584 353.215 191.403 353.115 191.25C353.015 191.098 352.869 190.981 352.698 190.918C352.527 190.854 352.34 190.848 352.165 190.9C351.989 190.951 351.836 191.058 351.726 191.203C351.688 191.255 351.656 191.311 351.632 191.37C351.466 191.751 351.165 192.058 350.788 192.233C350.41 192.407 349.982 192.436 349.585 192.315C349.524 192.295 349.461 192.282 349.397 192.278C349.215 192.267 349.034 192.314 348.881 192.414C348.728 192.514 348.611 192.66 348.548 192.832C348.485 193.003 348.479 193.19 348.53 193.365C348.582 193.541 348.688 193.695 348.834 193.804C348.885 193.842 348.941 193.874 349.001 193.898C349.382 194.065 349.688 194.365 349.862 194.743C350.037 195.12 350.066 195.549 349.944 195.947C349.925 196.008 349.912 196.071 349.908 196.135C349.896 196.317 349.944 196.498 350.044 196.651C350.144 196.804 350.29 196.92 350.461 196.984C350.633 197.047 350.82 197.053 350.995 197.002C351.17 196.95 351.324 196.844 351.434 196.698C351.471 196.646 351.503 196.59 351.528 196.531C351.694 196.15 351.994 195.843 352.371 195.669C352.749 195.494 353.177 195.465 353.575 195.587C353.636 195.606 353.699 195.619 353.763 195.624C353.945 195.635 354.126 195.587 354.278 195.487C354.431 195.387 354.548 195.241 354.611 195.069C354.674 194.898 354.681 194.711 354.629 194.536C354.578 194.361 354.471 194.207 354.326 194.097C354.274 194.059 354.218 194.027 354.159 194.003Z" fill="#4D8AF0"/>
<path opacity="0.5" d="M329.727 53.3367C329.346 53.1706 329.039 52.8702 328.865 52.4925C328.691 52.1148 328.662 51.6863 328.784 51.2885C328.803 51.2275 328.816 51.1644 328.82 51.1006C328.831 50.9183 328.784 50.7373 328.684 50.5844C328.584 50.4315 328.438 50.3148 328.267 50.2516C328.095 50.1885 327.908 50.1821 327.733 50.2336C327.558 50.285 327.404 50.3915 327.294 50.5373C327.257 50.5891 327.225 50.6451 327.2 50.7042C327.034 51.0855 326.734 51.3924 326.357 51.5665C325.979 51.7407 325.551 51.7698 325.153 51.6485C325.092 51.6289 325.029 51.6165 324.965 51.6117C324.783 51.6006 324.602 51.6485 324.449 51.7483C324.297 51.8481 324.18 51.9945 324.117 52.1658C324.054 52.3371 324.047 52.5242 324.099 52.6994C324.15 52.8746 324.257 53.0285 324.402 53.1384C324.454 53.1762 324.51 53.2078 324.569 53.2325C324.95 53.3985 325.257 53.699 325.431 54.0767C325.605 54.4544 325.634 54.8829 325.513 55.2807C325.493 55.3416 325.481 55.4047 325.476 55.4686C325.465 55.6509 325.513 55.8319 325.613 55.9848C325.712 56.1377 325.859 56.2543 326.03 56.3175C326.201 56.3807 326.388 56.3871 326.563 56.3356C326.738 56.2842 326.892 56.1776 327.002 56.0318C327.04 55.9801 327.071 55.9241 327.096 55.865C327.262 55.4837 327.562 55.1768 327.94 55.0026C328.317 54.8285 328.746 54.7993 329.143 54.9207C329.204 54.9403 329.267 54.9527 329.331 54.9575C329.513 54.9686 329.694 54.9207 329.847 54.8209C330 54.7211 330.117 54.5747 330.18 54.4034C330.243 54.2321 330.249 54.045 330.198 53.8698C330.146 53.6946 330.04 53.5407 329.894 53.4307C329.842 53.3929 329.786 53.3614 329.727 53.3367Z" fill="#4D8AF0"/>
<path opacity="0.5" d="M340.791 133.585C340.41 133.419 340.103 133.119 339.929 132.741C339.755 132.364 339.726 131.935 339.847 131.537C339.867 131.476 339.879 131.413 339.884 131.349C339.895 131.167 339.847 130.986 339.747 130.833C339.647 130.68 339.501 130.564 339.33 130.5C339.159 130.437 338.972 130.431 338.797 130.482C338.621 130.534 338.468 130.64 338.358 130.786C338.32 130.838 338.288 130.894 338.264 130.953C338.098 131.334 337.797 131.641 337.42 131.815C337.042 131.989 336.614 132.019 336.217 131.897C336.156 131.878 336.093 131.865 336.029 131.86C335.847 131.849 335.666 131.897 335.513 131.997C335.36 132.097 335.243 132.243 335.18 132.415C335.117 132.586 335.111 132.773 335.162 132.948C335.214 133.123 335.32 133.277 335.466 133.387C335.517 133.425 335.573 133.457 335.633 133.481C336.014 133.647 336.32 133.948 336.494 134.325C336.668 134.703 336.698 135.132 336.576 135.529C336.557 135.59 336.544 135.654 336.54 135.717C336.528 135.9 336.576 136.081 336.676 136.234C336.776 136.386 336.922 136.503 337.093 136.566C337.265 136.63 337.452 136.636 337.627 136.584C337.802 136.533 337.956 136.426 338.066 136.281C338.103 136.229 338.135 136.173 338.16 136.114C338.325 135.732 338.626 135.426 339.003 135.251C339.381 135.077 339.809 135.048 340.207 135.169C340.268 135.189 340.331 135.201 340.395 135.206C340.577 135.217 340.758 135.17 340.91 135.07C341.063 134.97 341.18 134.823 341.243 134.652C341.306 134.481 341.313 134.294 341.261 134.119C341.21 133.943 341.103 133.789 340.957 133.68C340.906 133.642 340.85 133.61 340.791 133.585Z" fill="#4D8AF0"/>
<path opacity="0.5" d="M33.2796 196.629C34.8071 196.629 36.0454 195.39 36.0454 193.862C36.0454 192.334 34.8071 191.095 33.2796 191.095C31.7521 191.095 30.5138 192.334 30.5138 193.862C30.5138 195.39 31.7521 196.629 33.2796 196.629Z" fill="#F55F44"/>
<path opacity="0.5" d="M269.296 105.311C270.824 105.311 272.062 104.073 272.062 102.544C272.062 101.016 270.824 99.777 269.296 99.777C267.769 99.777 266.531 101.016 266.531 102.544C266.531 104.073 267.769 105.311 269.296 105.311Z" fill="#4D8AF0"/>
<path opacity="0.5" d="M291.884 175.414C293.412 175.414 294.65 174.175 294.65 172.647C294.65 171.118 293.412 169.879 291.884 169.879C290.356 169.879 289.118 171.118 289.118 172.647C289.118 174.175 290.356 175.414 291.884 175.414Z" fill="#47E6B1"/>
<path opacity="0.5" d="M6.08241 29.6746C7.60993 29.6746 8.84823 28.4357 8.84823 26.9074C8.84823 25.3792 7.60993 24.1402 6.08241 24.1402C4.55489 24.1402 3.31659 25.3792 3.31659 26.9074C3.31659 28.4357 4.55489 29.6746 6.08241 29.6746Z" fill="#F55F44"/>
<path d="M234.895 105.667L224.65 106.065L225.161 119.244L235.406 118.847L234.895 105.667Z" fill="#3D6CB9"/>
<path d="M188.679 151.824C188.679 151.824 174.49 145.041 174.717 150.899C174.944 156.756 189.019 160.61 189.019 160.61L188.679 151.824Z" fill="#FFB9B9"/>
<path d="M196.463 201.384C196.463 201.384 189.769 217.776 187.296 229.605C184.823 241.433 181.056 257.711 185.901 269.256C190.746 280.8 204.52 314.73 204.662 318.39C204.804 322.051 203.483 325.769 206.41 325.655C209.337 325.542 225.267 320.524 225.913 318.299C226.56 316.074 220.478 310.444 220.478 310.444L205.461 263.364L221.129 232.692L232.431 278.45L234.644 335.559C234.644 335.559 245.508 332.205 247.085 335.076C247.085 335.076 251.952 328.288 252.571 325.331C253.189 322.374 250.272 266.025 250.272 266.025C250.272 266.025 260.244 201.843 252.194 202.155C244.144 202.468 212.613 183.159 196.463 201.384Z" fill="#2F2E41"/>
<path d="M206.296 322.727C206.296 322.727 198.871 339.147 198.167 339.907C197.464 340.668 192.625 348.189 196.284 348.047C199.943 347.905 208.583 343.903 214.942 337.79C221.301 331.677 229.686 321.086 228.926 320.382C228.165 319.678 222.958 317.681 222.958 317.681L206.296 322.727Z" fill="#2F2E41"/>
<path d="M235.966 331.841C235.966 331.841 235.518 339.192 234.168 342.177C232.818 345.163 232.988 349.556 236.647 349.414C240.306 349.272 249.763 347.438 249.763 347.438C249.763 347.438 250.325 343.017 249.564 342.313C248.804 341.609 245.565 333.669 246.943 331.416C248.322 329.162 235.966 331.841 235.966 331.841Z" fill="#2F2E41"/>
<path d="M241.379 93.3167C241.379 93.3167 249.18 105.48 252.22 108.295C255.261 111.11 246.707 117.308 246.707 117.308L231.395 119.369C231.395 119.369 231.588 105.429 230.799 103.993C230.011 102.557 241.379 93.3167 241.379 93.3167Z" fill="#FFB9B9"/>
<path d="M228.071 109.232C228.071 109.232 231.225 114.976 234.152 114.862C237.08 114.749 252.221 108.295 252.867 106.07C253.514 103.845 257.883 122.008 257.883 122.008L220.834 187.24L211.797 180.991L216.175 142.691L219.772 122.02L228.071 109.232Z" fill="#3D6CB9"/>
<path d="M254.234 167.612C252.756 170.705 251.833 173.931 251.961 177.233C251.967 177.379 251.972 177.526 251.985 177.672C252.336 184.448 254.831 192.286 255.726 197.985C256.376 202.074 256.191 205.058 253.799 205.759C248.002 207.451 254.645 208.66 232.214 216.129C209.783 223.599 205.869 217.152 205.812 215.687C205.755 214.223 208.989 203.098 208.229 202.394C207.468 201.691 197.592 211.607 194.608 210.256C191.624 208.905 194.267 201.47 194.267 201.47C194.267 201.47 200.99 185.81 200.848 182.149C200.706 178.488 211.03 161.222 211.03 161.222L218.053 115.487C218.053 115.487 220.753 109.516 224.383 108.642C228.014 107.767 231.026 109.85 231.026 109.85L224.951 123.285L218.541 146.999L219.613 155.756C219.613 155.756 227.067 140.068 231.963 134.012C236.859 127.956 247.297 113.619 247.297 113.619C247.297 113.619 249.733 105.392 247.894 102.934C246.054 100.468 255.567 100.099 259.624 110.208C261.774 115.565 265.264 123.554 267.451 130.993C269.399 137.583 270.32 143.743 268.389 147.265C265.439 152.644 258.017 159.715 254.234 167.612Z" fill="#575A89"/>
<path opacity="0.1" d="M268.389 147.265C265.439 152.644 258.017 159.715 254.234 167.612C253.246 164.05 252.04 160.365 252.04 160.365C252.04 160.365 247.416 135.613 261.093 129.216C263.36 128.996 265.626 129.63 267.451 130.993C269.399 137.583 270.32 143.743 268.389 147.265Z" fill="black"/>
<path d="M214.093 145.705L202.498 149.088L186.398 149.712L184.742 163.709L211.2 165.615C211.2 165.615 217.809 147.027 214.093 145.705Z" fill="#575A89"/>
<path d="M233.001 192.765C233.001 192.765 217.489 195.34 221.029 200.011C224.57 204.681 238.312 199.771 238.312 199.771L233.001 192.765Z" fill="#FFB9B9"/>
<path opacity="0.1" d="M251.985 177.672C252.336 184.448 254.831 192.286 255.726 197.985C250.784 202.665 246.085 206.792 244.314 206.861C240.655 207.003 234.772 206.498 232.605 207.315C230.438 208.132 229.167 194.249 229.167 194.249C229.167 194.249 230.461 189.8 236.23 187.376C240.124 185.736 247.589 181.289 251.985 177.672Z" fill="black"/>
<path d="M260.923 124.823C260.923 124.823 273.307 122.876 272.638 143.433C271.969 163.991 273.944 177.113 268.963 180.973C263.982 184.833 247.803 202.326 244.144 202.468C240.485 202.61 234.602 202.105 232.435 202.922C230.268 203.739 228.997 189.856 228.997 189.856C228.997 189.856 230.29 185.406 236.06 182.983C241.829 180.559 255.421 171.966 255.308 169.037C255.194 166.108 251.87 155.971 251.87 155.971C251.87 155.971 247.246 131.219 260.923 124.823Z" fill="#575A89"/>
<path d="M230.459 111.327C239.357 111.327 246.571 104.11 246.571 95.207C246.571 86.3042 239.357 79.087 230.459 79.087C221.56 79.087 214.347 86.3042 214.347 95.207C214.347 104.11 221.56 111.327 230.459 111.327Z" fill="#FFB9B9"/>
<path d="M219.61 72.1024C219.222 72.4374 218.756 72.671 218.256 72.7826C218.004 72.8274 217.745 72.7709 217.536 72.6255C217.326 72.48 217.182 72.2574 217.135 72.0062C216.767 72.771 216.351 73.5862 215.598 73.9787C214.846 74.3711 213.682 74.042 213.573 73.1998C213.463 73.8393 213.181 74.4364 212.756 74.9265C212.289 75.372 211.442 75.4844 211.034 74.9841C211.364 76.7862 211.16 78.6395 211.264 80.4686C211.367 82.2977 211.855 84.2369 213.236 85.4396C215.251 87.1937 218.28 86.7608 220.929 86.4285C221.33 86.3444 221.746 86.3671 222.135 86.4945C223.127 86.9174 223.082 88.2992 223.096 89.3781C223.177 91.2711 223.925 93.0742 225.209 94.4672C226.493 95.8601 228.229 96.7528 230.108 96.9867C231.16 97.1492 232.233 96.8871 233.092 96.2582C233.844 95.6202 234.228 94.5804 235.09 94.1011C236.493 93.3214 238.193 94.4584 239.219 95.6929C240.244 96.9274 241.254 98.446 242.843 98.672C244.943 98.9708 246.543 96.829 247.328 94.8568C248.411 92.0927 248.93 89.1396 248.854 86.1716C248.778 83.2037 248.109 80.2809 246.886 77.5758C242.5 68.01 227.517 66.497 219.61 72.1024Z" fill="#2F2E41"/>
<path d="M204.941 115.553C202.801 130.995 171.051 163.29 171.051 163.29C171.051 163.29 147.046 123.264 149.185 107.821C149.685 104.152 150.903 100.617 152.77 97.4195C154.637 94.2219 157.116 91.4241 160.066 89.1864C163.015 86.9487 166.376 85.315 169.957 84.3789C173.539 83.4428 177.269 83.2227 180.936 83.7311C184.602 84.2395 188.132 85.4664 191.324 87.3417C194.516 89.217 197.306 91.7038 199.536 94.6597C201.766 97.6155 203.391 100.982 204.318 104.568C205.246 108.153 205.457 111.886 204.941 115.553Z" fill="url(#paint1_linear)"/>
<path d="M203.111 116.041C201.104 130.526 171.323 160.818 171.323 160.818C171.323 160.818 148.807 123.274 150.813 108.789C151.281 105.347 152.424 102.031 154.175 99.0308C155.926 96.0308 158.251 93.4059 161.017 91.3065C163.784 89.207 166.937 87.6742 170.297 86.7959C173.656 85.9175 177.156 85.7109 180.595 86.1878C184.035 86.6648 187.346 87.8159 190.34 89.5753C193.335 91.3346 195.952 93.6677 198.044 96.4408C200.135 99.2139 201.659 102.373 202.529 105.736C203.398 109.099 203.596 112.601 203.111 116.041V116.041Z" fill="#3D6CB9"/>
<path d="M190.327 112.13C191.33 104.888 186.29 98.2049 179.069 97.2037C171.848 96.2024 165.182 101.262 164.178 108.504C163.175 115.746 168.215 122.429 175.436 123.431C182.657 124.432 189.324 119.372 190.327 112.13Z" fill="white"/>
<defs>
<linearGradient id="paint0_linear" x1="85.6727" y1="327.79" x2="216.191" y2="17.6481" gradientUnits="userSpaceOnUse">
<stop stop-color="#808080" stop-opacity="0.25"/>
<stop offset="0.53514" stop-color="#808080" stop-opacity="0.12"/>
<stop offset="1" stop-color="#808080" stop-opacity="0.1"/>
</linearGradient>
<linearGradient id="paint1_linear" x1="27114.8" y1="36417.3" x2="29020.6" y2="22673.3" gradientUnits="userSpaceOnUse">
<stop stop-color="#808080" stop-opacity="0.25"/>
<stop offset="0.53514" stop-color="#808080" stop-opacity="0.12"/>
<stop offset="1" stop-color="#808080" stop-opacity="0.1"/>
</linearGradient>
</defs>
</svg>
