<svg width="13" height="11" viewBox="0 0 13 11" fill="none" xmlns="http://www.w3.org/2000/svg">
<path d="M7.104 10.424C6.992 10.616 6.832 10.76 6.624 10.856C6.432 10.952 6.224 11 6 11C5.76 11 5.544 10.952 5.352 10.856C5.16 10.76 5.008 10.616 4.896 10.424L0.408 2.624C0.136 2.16 -1.22042e-07 1.792 -1.10153e-07 1.52C-9.61651e-08 1.2 0.152 0.895999 0.456 0.607999C0.776 0.335999 1.104 0.199999 1.44 0.199999C1.808 0.199999 2.096 0.375999 2.304 0.727999L6 7.112L9.792 0.752C9.984 0.399999 10.296 0.223999 10.728 0.223999C11.096 0.224 11.432 0.352 11.736 0.608C12.04 0.88 12.192 1.152 12.192 1.424C12.192 1.584 12.136 1.768 12.024 1.976C11.928 2.184 11.816 2.4 11.688 2.624L7.104 10.424Z" fill="white"/>
</svg>
