<svg width="21" height="23" viewBox="0 0 21 23" fill="none" xmlns="http://www.w3.org/2000/svg">
<path d="M10.3362 11.0792C11.8582 11.0792 13.1762 10.5333 14.2531 9.45619C15.33 8.3793 15.8759 7.06166 15.8759 5.53941C15.8759 4.01768 15.33 2.69986 14.253 1.62262C13.1759 0.545904 11.8581 0 10.3362 0C8.81391 0 7.49626 0.545904 6.41937 1.6228C5.34247 2.69969 4.79639 4.01751 4.79639 5.53941C4.79639 7.06166 5.34247 8.37948 6.41954 9.45637C7.49661 10.5331 8.81444 11.0792 10.3362 11.0792Z" fill="#D8D8D8"/>
<path d="M20.0292 17.6858C19.9982 17.2376 19.9353 16.7488 19.8429 16.2325C19.7495 15.7124 19.6293 15.2207 19.4854 14.7713C19.3368 14.3068 19.1347 13.8482 18.8848 13.4086C18.6254 12.9524 18.3208 12.5551 17.979 12.2282C17.6215 11.8862 17.1839 11.6112 16.6778 11.4106C16.1735 11.2111 15.6146 11.11 15.0168 11.11C14.782 11.11 14.5549 11.2064 14.1164 11.4919C13.8465 11.6679 13.5308 11.8714 13.1785 12.0966C12.8772 12.2885 12.469 12.4684 11.9649 12.6312C11.473 12.7904 10.9736 12.8711 10.4807 12.8711C9.98779 12.8711 9.48856 12.7904 8.99617 12.6312C8.49255 12.4686 8.0844 12.2887 7.78345 12.0967C7.43443 11.8737 7.11858 11.6702 6.84466 11.4917C6.40667 11.2062 6.17943 11.1099 5.94464 11.1099C5.34662 11.1099 4.7879 11.2111 4.28376 11.4108C3.77804 11.611 3.34023 11.886 2.98243 12.2283C2.64078 12.5554 2.33598 12.9525 2.07697 13.4086C1.82727 13.8482 1.62512 14.3067 1.47632 14.7715C1.3326 15.2209 1.2124 15.7124 1.11905 16.2325C1.02657 16.7481 0.963753 17.2371 0.932694 17.6863C0.902161 18.1264 0.886719 18.5832 0.886719 19.0445C0.886719 20.2451 1.26838 21.2171 2.021 21.9339C2.76431 22.6412 3.74786 23.0001 4.9439 23.0001H16.0185C17.2146 23.0001 18.1978 22.6414 18.9413 21.9339C19.6941 21.2176 20.0757 20.2455 20.0757 19.0443C20.0756 18.5809 20.0599 18.1238 20.0292 17.6858Z" fill="#D8D8D8"/>
</svg>
